<svg id="visual" viewBox="0 0 900 450" width="900" height="450" xmlns="http://www.w3.org/2000/svg" xmlns:xlink="http://www.w3.org/1999/xlink" version="1.1"><rect x="0" y="0" width="900" height="450" fill="#fff"></rect><defs><linearGradient id="grad1_0" x1="50%" y1="100%" x2="100%" y2="0%"><stop offset="10%" stop-color="#ffffff" stop-opacity="1"></stop><stop offset="90%" stop-color="#ffffff" stop-opacity="1"></stop></linearGradient></defs><defs><linearGradient id="grad2_0" x1="0%" y1="100%" x2="50%" y2="0%"><stop offset="10%" stop-color="#ffffff" stop-opacity="1"></stop><stop offset="90%" stop-color="#ffffff" stop-opacity="1"></stop></linearGradient></defs><g transform="translate(900, 450)"><path d="M-270 0C-256.5 -32.6 -243 -65.2 -228.2 -94.5C-213.4 -123.9 -197.5 -150 -177.5 -177.5C-157.5 -205 -133.6 -233.8 -103.3 -249.4C-73.1 -265.1 -36.5 -267.5 0 -270L0 0Z" fill="#F28459"></path></g><g transform="translate(0, 0)"><path d="M270 0C256.8 34.4 243.7 68.8 223.6 92.6C203.5 116.4 176.5 129.7 157.7 157.7C138.9 185.6 128.2 228.3 103.3 249.4C78.4 270.6 39.2 270.3 0 270L0 0Z" fill="#F28459"></path></g></svg>