<svg id="visual" viewBox="0 0 3000 1080" width="3000" height="1080" xmlns="http://www.w3.org/2000/svg" xmlns:xlink="http://www.w3.org/1999/xlink" version="1.1"><rect x="0" y="0" width="3000" height="1080" fill="#fff"></rect><defs><linearGradient id="grad1_0" x1="64%" y1="100%" x2="100%" y2="0%"><stop offset="-5.55555555555555%" stop-color="#ffffff" stop-opacity="1"></stop><stop offset="105.55555555555557%" stop-color="#ffffff" stop-opacity="1"></stop></linearGradient></defs><defs><linearGradient id="grad2_0" x1="0%" y1="100%" x2="36%" y2="0%"><stop offset="-5.55555555555555%" stop-color="#ffffff" stop-opacity="1"></stop><stop offset="105.55555555555557%" stop-color="#ffffff" stop-opacity="1"></stop></linearGradient></defs><g transform="translate(3000, 1080)"><path d="M-648 0C-618.2 -82.2 -588.3 -164.4 -543.2 -225C-498.2 -285.6 -437.8 -324.6 -391 -391C-344.2 -457.4 -310.9 -551.3 -248 -598.7C-185.1 -646.1 -92.5 -647 0 -648L0 0Z" fill="#F28459"></path></g><g transform="translate(0, 0)"><path d="M648 0C643.3 90.9 638.7 181.7 595.9 246.8C553.1 311.9 472.2 351.3 412.2 412.2C352.3 473.2 313.2 555.8 248 598.7C182.8 641.6 91.4 644.8 0 648L0 0Z" fill="#F28459"></path></g></svg>