<svg id="visual" viewBox="0 0 1920 600" width="1920" height="600" xmlns="http://www.w3.org/2000/svg" xmlns:xlink="http://www.w3.org/1999/xlink" version="1.1"><path d="M0 381L45.7 391C91.3 401 182.7 421 274.2 426.8C365.7 432.7 457.3 424.3 548.8 413.5C640.3 402.7 731.7 389.3 823 384.5C914.3 379.7 1005.7 383.3 1097 399.5C1188.3 415.7 1279.7 444.3 1371.2 452C1462.7 459.7 1554.3 446.3 1645.8 425.7C1737.3 405 1828.7 377 1874.3 363L1920 349L1920 601L1874.3 601C1828.7 601 1737.3 601 1645.8 601C1554.3 601 1462.7 601 1371.2 601C1279.7 601 1188.3 601 1097 601C1005.7 601 914.3 601 823 601C731.7 601 640.3 601 548.8 601C457.3 601 365.7 601 274.2 601C182.7 601 91.3 601 45.7 601L0 601Z" fill="#080112" stroke-linecap="round" stroke-linejoin="miter"></path></svg>