<svg width="375" height="253" viewBox="0 0 375 253" fill="none" xmlns="http://www.w3.org/2000/svg">
<mask id="mask0_582_823" style="mask-type:alpha" maskUnits="userSpaceOnUse" x="0" y="0" width="375" height="253">
<rect width="375" height="253" fill="#D9D9D9"/>
</mask>
<g mask="url(#mask0_582_823)">
<path d="M-30.7602 227.016C-58.7689 230.169 -114 230.96 -114 230.96V253H375V0C325.151 24.6482 298.449 160.959 219.002 185.114C163.509 201.986 127.939 194.387 70.4949 205.325C30.6143 212.919 9.63184 222.469 -30.7602 227.016Z" fill="#1A6DFF"/>
<path fill-rule="evenodd" clip-rule="evenodd" d="M344.547 30.1917C346.388 31.4118 346.892 33.8939 345.672 35.7355C337.674 47.8081 329.832 61.9492 321.569 76.8513L321.211 77.4958C312.848 92.5768 304.068 108.372 294.4 123.207C275.137 152.765 251.86 179.304 220.165 188.941C187.792 198.784 162.039 200.419 135.369 202.113C132.95 202.267 130.523 202.421 128.083 202.582C125.879 202.727 123.974 201.058 123.829 198.853C123.683 196.649 125.353 194.744 127.557 194.599C129.988 194.439 132.399 194.285 134.795 194.133C161.492 192.434 186.387 190.849 217.838 181.287C246.694 172.513 268.649 148.068 287.698 118.839C297.186 104.281 305.832 88.7328 314.215 73.616L314.662 72.8092C322.856 58.0331 330.829 43.6556 339.003 31.3171C340.223 29.4755 342.705 28.9716 344.547 30.1917Z" fill="#260FC2"/>
<path fill-rule="evenodd" clip-rule="evenodd" d="M306.859 13.9863L308.527 15.0039L307.486 16.7115L305.817 15.6939L306.859 13.9863ZM310.746 18.6993L309.116 17.7054L310.157 15.9978L311.787 16.9918L310.746 18.6993ZM314.006 20.6872L312.376 19.6933L313.417 17.9857L315.047 18.9796L314.006 20.6872ZM317.266 22.6751L315.636 21.6811L316.677 19.9736L318.307 20.9675L317.266 22.6751ZM320.526 24.6629L318.896 23.669L319.937 21.9614L321.567 22.9553L320.526 24.6629ZM323.786 26.6508L322.156 25.6568L323.197 23.9493L324.827 24.9432L323.786 26.6508ZM327.046 28.6386L325.416 27.6447L326.457 25.9371L328.087 26.9311L327.046 28.6386ZM330.306 30.6265L328.676 29.6326L329.717 27.925L331.347 28.9189L330.306 30.6265ZM333.566 32.6143L331.936 31.6204L332.977 29.9128L334.607 30.9068L333.566 32.6143ZM336.826 34.6022L335.196 33.6083L336.237 31.9007L337.867 32.8946L336.826 34.6022ZM338.456 35.5961L339.497 33.8885L341.166 34.9061L340.125 36.6137L338.456 35.5961Z" fill="#260FC2"/>
<path fill-rule="evenodd" clip-rule="evenodd" d="M205.169 159.456L206.848 160.518L205.778 162.208L204.1 161.146L205.169 159.456ZM209.111 164.316L207.445 163.262L208.514 161.572L210.18 162.626L209.111 164.316ZM212.443 166.425L210.777 165.37L211.846 163.68L213.512 164.734L212.443 166.425ZM215.776 168.533L214.109 167.479L215.179 165.789L216.845 166.843L215.776 168.533ZM219.108 170.641L217.442 169.587L218.511 167.897L220.177 168.951L219.108 170.641ZM222.441 172.75L220.774 171.695L221.844 170.005L223.51 171.059L222.441 172.75ZM225.773 174.858L224.107 173.804L225.176 172.114L226.842 173.168L225.773 174.858ZM229.105 176.966L227.439 175.912L228.508 174.222L230.175 175.276L229.105 176.966ZM232.438 179.075L230.772 178.02L231.841 176.33L233.507 177.384L232.438 179.075ZM234.104 180.129L235.173 178.439L236.852 179.5L235.782 181.191L234.104 180.129Z" fill="#260FC2"/>
<path fill-rule="evenodd" clip-rule="evenodd" d="M96.8934 180.249L98.5701 181.236L97.5551 182.96L95.8784 181.972L96.8934 180.249ZM100.815 184.88L99.1851 183.92L100.2 182.196L101.83 183.156L100.815 184.88ZM104.075 186.8L102.445 185.84L103.46 184.116L105.09 185.076L104.075 186.8ZM107.335 188.72L105.705 187.76L106.72 186.037L108.35 186.997L107.335 188.72ZM110.595 190.64L108.965 189.68L109.98 187.957L111.61 188.917L110.595 190.64ZM113.855 192.56L112.225 191.6L113.24 189.877L114.87 190.837L113.855 192.56ZM117.115 194.48L115.485 193.52L116.5 191.797L118.13 192.757L117.115 194.48ZM120.375 196.4L118.745 195.44L119.76 193.717L121.39 194.677L120.375 196.4ZM122.005 197.36L123.02 195.637L124.697 196.624L123.682 198.348L122.005 197.36Z" fill="#260FC2"/>
<path d="M76.5341 179.496L77.8541 177.916C78.6941 176.916 79.1241 176.386 79.1241 175.686C79.1241 174.616 78.3841 173.686 76.8641 173.686C75.3941 173.686 74.4441 174.556 74.4141 175.876H75.7641C75.8341 175.226 76.1941 174.856 76.8141 174.856C77.5141 174.856 77.7641 175.286 77.7641 175.676C77.7641 176.176 77.3341 176.616 76.7141 177.366L74.6041 179.906V180.606H79.1941V179.496H76.5341Z" fill="#260FC2"/>
<path d="M83.1919 173.686C81.2519 173.686 80.1219 175.176 80.1219 177.206C80.1219 179.236 81.2519 180.726 83.1919 180.726C85.1319 180.726 86.2519 179.236 86.2519 177.206C86.2519 175.176 85.1319 173.686 83.1919 173.686ZM83.1919 179.496C82.0419 179.496 81.4919 178.496 81.4919 177.206C81.4919 175.916 82.0419 174.916 83.1919 174.916C84.3319 174.916 84.8819 175.916 84.8819 177.206C84.8819 178.496 84.3319 179.496 83.1919 179.496Z" fill="#260FC2"/>
<path d="M89.9766 179.496V173.806H89.1966L86.9566 174.606V175.856L88.6166 175.296V179.496H86.8766V180.606H91.6166V179.496H89.9766Z" fill="#260FC2"/>
<path d="M94.2041 173.686C92.6541 173.686 91.5641 174.726 91.5641 176.096C91.5641 177.446 92.6541 178.466 94.1841 178.466L92.8441 180.606H94.4241L96.2141 177.776C96.6141 177.136 96.8441 176.646 96.8441 176.056C96.8441 174.746 95.7641 173.686 94.2041 173.686ZM94.2041 177.276C93.4141 177.276 92.8841 176.686 92.8841 176.016C92.8841 175.346 93.4241 174.776 94.2041 174.776C94.9841 174.776 95.5341 175.346 95.5341 175.996C95.5341 176.326 95.4141 176.576 95.0941 177.016C94.8541 177.186 94.5441 177.276 94.2041 177.276Z" fill="#260FC2"/>
<path d="M182.851 158.787L184.171 157.207C185.011 156.207 185.441 155.677 185.441 154.977C185.441 153.907 184.701 152.977 183.181 152.977C181.711 152.977 180.761 153.847 180.731 155.167H182.081C182.151 154.517 182.511 154.147 183.131 154.147C183.831 154.147 184.081 154.577 184.081 154.967C184.081 155.467 183.651 155.907 183.031 156.657L180.921 159.197V159.897H185.511V158.787H182.851Z" fill="#260FC2"/>
<path d="M189.509 152.977C187.569 152.977 186.439 154.467 186.439 156.497C186.439 158.527 187.569 160.017 189.509 160.017C191.449 160.017 192.569 158.527 192.569 156.497C192.569 154.467 191.449 152.977 189.509 152.977ZM189.509 158.787C188.359 158.787 187.809 157.787 187.809 156.497C187.809 155.207 188.359 154.207 189.509 154.207C190.649 154.207 191.199 155.207 191.199 156.497C191.199 157.787 190.649 158.787 189.509 158.787Z" fill="#260FC2"/>
<path d="M195.234 158.787L196.554 157.207C197.394 156.207 197.824 155.677 197.824 154.977C197.824 153.907 197.084 152.977 195.564 152.977C194.094 152.977 193.144 153.847 193.114 155.167H194.464C194.534 154.517 194.894 154.147 195.514 154.147C196.214 154.147 196.464 154.577 196.464 154.967C196.464 155.467 196.034 155.907 195.414 156.657L193.304 159.197V159.897H197.894V158.787H195.234Z" fill="#260FC2"/>
<path d="M201.892 152.977C199.952 152.977 198.822 154.467 198.822 156.497C198.822 158.527 199.952 160.017 201.892 160.017C203.832 160.017 204.952 158.527 204.952 156.497C204.952 154.467 203.832 152.977 201.892 152.977ZM201.892 158.787C200.742 158.787 200.192 157.787 200.192 156.497C200.192 155.207 200.742 154.207 201.892 154.207C203.032 154.207 203.582 155.207 203.582 156.497C203.582 157.787 203.032 158.787 201.892 158.787Z" fill="#260FC2"/>
<path d="M283.806 13.8737L285.126 12.2937C285.966 11.2937 286.396 10.7637 286.396 10.0637C286.396 8.99372 285.656 8.06372 284.136 8.06372C282.666 8.06372 281.716 8.93372 281.686 10.2537H283.036C283.106 9.60372 283.466 9.23372 284.086 9.23372C284.786 9.23372 285.036 9.66372 285.036 10.0537C285.036 10.5537 284.606 10.9937 283.986 11.7437L281.876 14.2837V14.9837H286.466V13.8737H283.806Z" fill="#260FC2"/>
<path d="M290.464 8.06372C288.524 8.06372 287.394 9.55372 287.394 11.5837C287.394 13.6137 288.524 15.1037 290.464 15.1037C292.404 15.1037 293.524 13.6137 293.524 11.5837C293.524 9.55372 292.404 8.06372 290.464 8.06372ZM290.464 13.8737C289.314 13.8737 288.764 12.8737 288.764 11.5837C288.764 10.2937 289.314 9.29372 290.464 9.29372C291.604 9.29372 292.154 10.2937 292.154 11.5837C292.154 12.8737 291.604 13.8737 290.464 13.8737Z" fill="#260FC2"/>
<path d="M296.189 13.8737L297.509 12.2937C298.349 11.2937 298.779 10.7637 298.779 10.0637C298.779 8.99372 298.039 8.06372 296.519 8.06372C295.049 8.06372 294.099 8.93372 294.069 10.2537H295.419C295.489 9.60372 295.849 9.23372 296.469 9.23372C297.169 9.23372 297.419 9.66372 297.419 10.0537C297.419 10.5537 296.989 10.9937 296.369 11.7437L294.259 14.2837V14.9837H298.849V13.8737H296.189Z" fill="#260FC2"/>
<path d="M302.698 13.8737V8.18372H301.918L299.678 8.98372V10.2337L301.338 9.67372V13.8737H299.598V14.9837H304.338V13.8737H302.698Z" fill="#260FC2"/>
<path d="M344.197 26.2741C346.211 25.2001 347.666 26.2466 347.572 27.8419L346.782 49.8603C346.656 51.2555 345.348 52.1942 343.907 51.4544L325.16 40.6053C323.727 39.8329 323.687 37.9933 325.023 37.3261L344.197 26.2741Z" fill="#260FC2"/>
<path fill-rule="evenodd" clip-rule="evenodd" d="M116 27C103.85 27 94 36.8497 94 49V95C94 107.15 103.85 117 116 117H246.402L262.124 126.907L259.012 115.496C267.2 112.292 273 104.323 273 95V49C273 36.8497 263.15 27 251 27H116Z" fill="#E8EEFF"/>
<path d="M151.964 61.849L154.724 58.767C156.587 56.674 157.438 55.409 157.438 53.914C157.438 51.177 155.506 49.061 151.941 49.061C148.376 49.061 146.168 51.108 146.076 54.328H149.779C149.894 53.086 150.584 52.35 151.78 52.35C153.068 52.35 153.597 53.109 153.597 53.891C153.597 54.834 152.838 55.685 151.665 57.065L146.398 63.137V65H157.553V61.849H151.964Z" fill="#260FC2"/>
<path d="M158.203 67.392H160.273L161.653 65.092C162.32 63.965 162.343 63.689 162.343 63.183C162.343 62.079 161.423 61.205 160.273 61.205C159.123 61.205 158.203 62.079 158.203 63.183C158.203 63.896 158.594 64.494 159.399 64.839L158.203 67.392Z" fill="#260FC2"/>
<path d="M176.358 58.997H174.403V54.696H170.746V58.997H167.089L170.769 49.36H167.043L162.788 59.825V62.24H170.746V65H174.403V62.24H176.358V58.997Z" fill="#260FC2"/>
<path d="M184.253 49.061C179.745 49.061 177.008 52.442 177.008 57.18C177.008 61.918 179.745 65.299 184.253 65.299C188.761 65.299 191.498 61.918 191.498 57.18C191.498 52.442 188.761 49.061 184.253 49.061ZM184.253 61.918C181.93 61.918 180.688 59.894 180.688 57.18C180.688 54.466 181.93 52.442 184.253 52.442C186.576 52.442 187.818 54.466 187.818 57.18C187.818 59.894 186.576 61.918 184.253 61.918Z" fill="#260FC2"/>
<path d="M199.612 49.061C195.104 49.061 192.367 52.442 192.367 57.18C192.367 61.918 195.104 65.299 199.612 65.299C204.12 65.299 206.857 61.918 206.857 57.18C206.857 52.442 204.12 49.061 199.612 49.061ZM199.612 61.918C197.289 61.918 196.047 59.894 196.047 57.18C196.047 54.466 197.289 52.442 199.612 52.442C201.935 52.442 203.177 54.466 203.177 57.18C203.177 59.894 201.935 61.918 199.612 61.918Z" fill="#260FC2"/>
<path d="M210.508 55.298C208.87 55.298 207.624 56.446 207.624 58.098C207.624 59.764 208.87 60.912 210.508 60.912C212.132 60.912 213.364 59.764 213.364 58.098C213.364 56.446 212.132 55.298 210.508 55.298ZM218.194 55.48H216.682L210.326 65H211.838L218.194 55.48ZM210.508 59.428C209.78 59.428 209.178 58.896 209.178 58.098C209.178 57.3 209.78 56.768 210.508 56.768C211.208 56.768 211.824 57.3 211.824 58.098C211.824 58.896 211.208 59.428 210.508 59.428ZM218.194 59.568C216.57 59.568 215.324 60.716 215.324 62.368C215.324 64.034 216.57 65.182 218.194 65.182C219.832 65.182 221.064 64.034 221.064 62.368C221.064 60.716 219.832 59.568 218.194 59.568ZM218.194 63.712C217.48 63.712 216.878 63.18 216.878 62.368C216.878 61.584 217.48 61.052 218.194 61.052C218.908 61.052 219.524 61.584 219.524 62.368C219.524 63.18 218.908 63.712 218.194 63.712Z" fill="#260FC2"/>
<g opacity="0.5">
<path d="M132.569 79.97L133.199 78.93L132.109 78.48L132.289 77.97L133.429 78.25L133.529 77.04H134.069L134.169 78.24L135.309 77.97L135.479 78.48L134.389 78.93L135.029 79.97L134.589 80.29L133.799 79.34L133.009 80.29L132.569 79.97Z" fill="#260FC2"/>
<path d="M136.487 81.17C136.814 81.07 137.114 80.9367 137.387 80.77C137.667 80.5967 137.904 80.4 138.097 80.18C138.297 79.9534 138.45 79.7067 138.557 79.44C138.67 79.1734 138.73 78.8934 138.737 78.6H136.697V77.94H138.737V76.84H139.557V77.94H141.627V78.6H139.557C139.564 78.8867 139.624 79.16 139.737 79.42C139.85 79.6734 140.007 79.9067 140.207 80.12C140.407 80.3334 140.644 80.5234 140.917 80.69C141.197 80.85 141.5 80.98 141.827 81.08L141.447 81.71C140.914 81.55 140.45 81.3067 140.057 80.98C139.664 80.6534 139.364 80.2667 139.157 79.82C138.964 80.2934 138.667 80.7 138.267 81.04C137.874 81.38 137.407 81.6367 136.867 81.81L136.487 81.17ZM139.557 83.14C139.977 83.1134 140.4 83.0834 140.827 83.05C141.254 83.0167 141.667 82.9667 142.067 82.9L142.137 83.51C141.637 83.6034 141.127 83.6767 140.607 83.73C140.087 83.7767 139.577 83.8134 139.077 83.84C138.577 83.8667 138.094 83.8834 137.627 83.89C137.16 83.8967 136.727 83.9 136.327 83.9L136.217 83.21C136.59 83.21 136.987 83.21 137.407 83.21C137.834 83.2034 138.277 83.1934 138.737 83.18V81.51H139.557V83.14ZM143.477 76.77V85.75H142.657V76.77H143.477Z" fill="#260FC2"/>
<path d="M146.746 84.86H152.216V85.53H145.936V82.57H146.746V84.86ZM153.006 80.9V81.56H144.856V80.9H150.896C151.023 80.28 151.096 79.74 151.116 79.28C151.136 78.82 151.146 78.3934 151.146 78V77.97H145.896V77.3H151.956V78C151.956 78.3867 151.946 78.8134 151.926 79.28C151.906 79.7467 151.839 80.2867 151.726 80.9H153.006Z" fill="#260FC2"/>
<path d="M155.482 79.64C155.528 79.3067 155.622 79.01 155.762 78.75C155.902 78.49 156.075 78.2734 156.282 78.1C156.495 77.92 156.738 77.7834 157.012 77.69C157.285 77.5967 157.578 77.55 157.892 77.55C158.212 77.55 158.502 77.5967 158.762 77.69C159.028 77.7834 159.258 77.9134 159.452 78.08C159.645 78.2467 159.795 78.4467 159.902 78.68C160.008 78.9067 160.062 79.1634 160.062 79.45C160.062 79.6834 160.032 79.8934 159.972 80.08C159.912 80.2667 159.825 80.43 159.712 80.57C159.598 80.7034 159.462 80.82 159.302 80.92C159.142 81.0134 158.965 81.0934 158.772 81.16C159.252 81.28 159.615 81.4934 159.862 81.8C160.108 82.1 160.232 82.4767 160.232 82.93C160.232 83.2634 160.165 83.5667 160.032 83.84C159.905 84.1134 159.728 84.3467 159.502 84.54C159.275 84.7267 159.012 84.8734 158.712 84.98C158.418 85.08 158.098 85.13 157.752 85.13C157.358 85.13 157.025 85.08 156.752 84.98C156.478 84.88 156.242 84.7434 156.042 84.57C155.848 84.3967 155.688 84.1934 155.562 83.96C155.442 83.7267 155.338 83.4734 155.252 83.2L156.072 82.86C156.092 82.9734 156.142 83.1234 156.222 83.31C156.322 83.5167 156.442 83.6967 156.582 83.85C156.722 84.0034 156.878 84.1234 157.052 84.21C157.232 84.2967 157.462 84.34 157.742 84.34C158.002 84.34 158.228 84.2967 158.422 84.21C158.622 84.1234 158.785 84.0167 158.912 83.89C159.038 83.7567 159.135 83.61 159.202 83.45C159.268 83.2834 159.302 83.1167 159.302 82.95C159.302 82.75 159.275 82.5667 159.222 82.4C159.168 82.2334 159.072 82.09 158.932 81.97C158.798 81.85 158.605 81.7567 158.352 81.69C158.105 81.6167 157.788 81.58 157.402 81.58V80.92C157.722 80.9134 157.992 80.88 158.212 80.82C158.438 80.7534 158.622 80.6634 158.762 80.55C158.902 80.43 159.002 80.29 159.062 80.13C159.122 79.97 159.152 79.7934 159.152 79.6C159.152 79.3934 159.118 79.21 159.052 79.05C158.992 78.89 158.902 78.76 158.782 78.66C158.668 78.56 158.528 78.4834 158.362 78.43C158.202 78.3767 158.028 78.35 157.842 78.35C157.655 78.35 157.482 78.38 157.322 78.44C157.168 78.4934 157.028 78.57 156.902 78.67C156.782 78.7634 156.682 78.8767 156.602 79.01C156.522 79.1434 156.465 79.29 156.432 79.45C156.405 79.5834 156.392 79.6967 156.392 79.79L155.482 79.64Z" fill="#260FC2"/>
<path d="M167.319 80.31H164.789V79.66H167.319V78.6H164.789V77.94H167.319V76.78H168.149V83.42H167.319V80.31ZM165.929 81.76C165.209 81.8934 164.532 81.9834 163.899 82.03C163.265 82.07 162.619 82.09 161.959 82.09H161.279V77.42H162.099V81.4C162.719 81.3934 163.329 81.37 163.929 81.33C164.529 81.2834 165.165 81.2 165.839 81.08L165.929 81.76ZM168.379 84.87V85.54H162.399V82.85H163.219V84.87H168.379Z" fill="#260FC2"/>
<path d="M175.754 77.47C175.754 78.05 175.654 78.59 175.454 79.09C175.261 79.59 174.981 80.0434 174.614 80.45C174.248 80.8567 173.804 81.2167 173.284 81.53C172.771 81.8434 172.191 82.1 171.544 82.3L171.214 81.65C171.741 81.4834 172.218 81.2834 172.644 81.05C173.078 80.81 173.451 80.54 173.764 80.24C174.084 79.94 174.338 79.6134 174.524 79.26C174.718 78.9067 174.834 78.5334 174.874 78.14H171.574V77.47H175.754ZM173.384 84.87H178.544V85.54H172.564V82.66H173.384V84.87ZM179.484 79.5V80.18H178.154V83.33H177.334V76.78H178.154V79.5H179.484Z" fill="#260FC2"/>
<path d="M184.02 82.99C184.233 82.99 184.43 82.9334 184.61 82.82C184.79 82.7067 184.943 82.5467 185.07 82.34C185.203 82.1267 185.306 81.8734 185.38 81.58C185.453 81.2867 185.49 80.9567 185.49 80.59C185.49 80.23 185.453 79.9034 185.38 79.61C185.306 79.31 185.203 79.0567 185.07 78.85C184.943 78.6434 184.79 78.4834 184.61 78.37C184.43 78.2567 184.233 78.2 184.02 78.2C183.8 78.2 183.6 78.2567 183.42 78.37C183.24 78.4834 183.083 78.6434 182.95 78.85C182.823 79.0567 182.723 79.31 182.65 79.61C182.576 79.9034 182.54 80.23 182.54 80.59C182.54 80.9567 182.576 81.2867 182.65 81.58C182.723 81.8734 182.823 82.1267 182.95 82.34C183.083 82.5467 183.24 82.7067 183.42 82.82C183.6 82.9334 183.8 82.99 184.02 82.99ZM184.02 77.46C184.346 77.46 184.646 77.5334 184.92 77.68C185.2 77.8267 185.44 78.0367 185.64 78.31C185.84 78.5834 185.993 78.9134 186.1 79.3C186.213 79.68 186.27 80.11 186.27 80.59C186.27 81.07 186.213 81.5034 186.1 81.89C185.993 82.27 185.84 82.5967 185.64 82.87C185.44 83.1434 185.2 83.3534 184.92 83.5C184.646 83.6467 184.346 83.72 184.02 83.72C183.686 83.72 183.38 83.6467 183.1 83.5C182.826 83.3534 182.59 83.1434 182.39 82.87C182.19 82.5967 182.033 82.27 181.92 81.89C181.813 81.5034 181.76 81.07 181.76 80.59C181.76 80.11 181.813 79.68 181.92 79.3C182.033 78.9134 182.19 78.5834 182.39 78.31C182.59 78.0367 182.826 77.8267 183.1 77.68C183.38 77.5334 183.686 77.46 184.02 77.46ZM190.01 81.04H188.53V85.74H187.71V76.78H188.53V80.35H190.01V81.04Z" fill="#260FC2"/>
<path d="M197.689 76.78V81.91H196.869V76.78H197.689ZM197.689 82.39V85.62H191.889V82.39H197.689ZM192.689 83.04V84.96H196.889V83.04H192.689ZM192.869 77.25C193.209 77.25 193.522 77.3 193.809 77.4C194.096 77.5 194.342 77.6434 194.549 77.83C194.762 78.0167 194.926 78.24 195.039 78.5C195.159 78.7534 195.219 79.0334 195.219 79.34C195.219 79.6534 195.159 79.9367 195.039 80.19C194.926 80.4434 194.762 80.6634 194.549 80.85C194.342 81.0367 194.096 81.18 193.809 81.28C193.522 81.38 193.209 81.43 192.869 81.43C192.529 81.43 192.216 81.38 191.929 81.28C191.649 81.18 191.406 81.0367 191.199 80.85C190.992 80.6634 190.829 80.4434 190.709 80.19C190.596 79.9367 190.539 79.6534 190.539 79.34C190.539 79.0334 190.596 78.7534 190.709 78.5C190.829 78.24 190.992 78.0167 191.199 77.83C191.406 77.6434 191.649 77.5 191.929 77.4C192.216 77.3 192.529 77.25 192.869 77.25ZM192.869 77.93C192.649 77.93 192.442 77.9667 192.249 78.04C192.062 78.1067 191.902 78.2034 191.769 78.33C191.636 78.4567 191.529 78.6067 191.449 78.78C191.376 78.9467 191.339 79.1334 191.339 79.34C191.339 79.5467 191.376 79.7367 191.449 79.91C191.529 80.0834 191.636 80.2334 191.769 80.36C191.902 80.48 192.062 80.5767 192.249 80.65C192.442 80.7167 192.649 80.75 192.869 80.75C193.096 80.75 193.302 80.7167 193.489 80.65C193.682 80.5767 193.846 80.48 193.979 80.36C194.119 80.2334 194.226 80.0834 194.299 79.91C194.379 79.7367 194.419 79.5467 194.419 79.34C194.419 79.1334 194.379 78.9467 194.299 78.78C194.226 78.6067 194.119 78.4567 193.979 78.33C193.846 78.2034 193.682 78.1067 193.489 78.04C193.302 77.9667 193.096 77.93 192.869 77.93Z" fill="#260FC2"/>
<path d="M204.178 81.21V76.93H204.948V82.3H204.178V81.8H202.608V81.21H204.178ZM201.388 77.66C201.022 77.66 200.728 77.7267 200.508 77.86C200.295 77.9934 200.188 78.1767 200.188 78.41C200.188 78.6434 200.295 78.8267 200.508 78.96C200.728 79.0934 201.022 79.16 201.388 79.16C201.755 79.16 202.048 79.0934 202.268 78.96C202.488 78.8267 202.598 78.6434 202.598 78.41C202.598 78.1767 202.488 77.9934 202.268 77.86C202.048 77.7267 201.755 77.66 201.388 77.66ZM201.388 79.75C201.095 79.75 200.828 79.72 200.588 79.66C200.355 79.5934 200.152 79.5034 199.978 79.39C199.812 79.2767 199.682 79.1367 199.588 78.97C199.495 78.8034 199.448 78.6167 199.448 78.41C199.448 78.2034 199.495 78.02 199.588 77.86C199.682 77.6934 199.812 77.5534 199.978 77.44C200.152 77.3267 200.355 77.24 200.588 77.18C200.828 77.1134 201.095 77.08 201.388 77.08C201.975 77.08 202.445 77.2 202.798 77.44C203.158 77.6734 203.338 77.9967 203.338 78.41C203.338 78.83 203.158 79.16 202.798 79.4C202.445 79.6334 201.975 79.75 201.388 79.75ZM201.018 80.85C200.658 80.87 200.312 80.8834 199.978 80.89C199.652 80.89 199.348 80.89 199.068 80.89L198.968 80.25C199.275 80.25 199.625 80.25 200.018 80.25C200.412 80.2434 200.818 80.23 201.238 80.21C201.658 80.19 202.078 80.1634 202.498 80.13C202.925 80.0967 203.325 80.05 203.698 79.99L203.758 80.56C203.452 80.62 203.132 80.67 202.798 80.71C202.472 80.75 202.138 80.7834 201.798 80.81V82.3H201.018V80.85ZM205.778 84.12H201.358V84.97H205.778V84.12ZM205.778 82.65H206.578V85.62H200.548V82.65H201.358V83.49H205.778V82.65ZM206.578 76.78V82.32H205.798V76.78H206.578Z" fill="#260FC2"/>
<path d="M216.824 76.78V81.59H216.004V76.78H216.824ZM211.854 82.03V83.13H216.014V82.03H216.824V85.62H211.044V82.03H211.854ZM211.854 84.96H216.014V83.77H211.854V84.96ZM212.004 77.2C212.344 77.2 212.657 77.25 212.944 77.35C213.23 77.45 213.477 77.59 213.684 77.77C213.897 77.95 214.06 78.1667 214.174 78.42C214.294 78.6734 214.354 78.9534 214.354 79.26C214.354 79.5734 214.294 79.8567 214.174 80.11C214.06 80.3634 213.897 80.58 213.684 80.76C213.477 80.94 213.23 81.08 212.944 81.18C212.657 81.28 212.344 81.33 212.004 81.33C211.664 81.33 211.35 81.28 211.064 81.18C210.784 81.08 210.54 80.94 210.334 80.76C210.127 80.58 209.964 80.3634 209.844 80.11C209.73 79.8567 209.674 79.5734 209.674 79.26C209.674 78.9534 209.73 78.6734 209.844 78.42C209.964 78.1667 210.127 77.95 210.334 77.77C210.54 77.59 210.784 77.45 211.064 77.35C211.35 77.25 211.664 77.2 212.004 77.2ZM212.004 77.88C211.784 77.88 211.577 77.9134 211.384 77.98C211.197 78.0467 211.037 78.1434 210.904 78.27C210.77 78.39 210.664 78.5367 210.584 78.71C210.51 78.8767 210.474 79.06 210.474 79.26C210.474 79.4667 210.51 79.6567 210.584 79.83C210.664 79.9967 210.77 80.1434 210.904 80.27C211.037 80.39 211.197 80.4834 211.384 80.55C211.577 80.6167 211.784 80.65 212.004 80.65C212.23 80.65 212.437 80.6167 212.624 80.55C212.817 80.4834 212.98 80.39 213.114 80.27C213.254 80.1434 213.36 79.9967 213.434 79.83C213.514 79.6567 213.554 79.4667 213.554 79.26C213.554 79.06 213.514 78.8767 213.434 78.71C213.36 78.5367 213.254 78.39 213.114 78.27C212.98 78.1434 212.817 78.0467 212.624 77.98C212.437 77.9134 212.23 77.88 212.004 77.88Z" fill="#260FC2"/>
<path d="M223.043 81.73C222.543 81.55 222.106 81.2834 221.733 80.93C221.36 80.57 221.076 80.16 220.883 79.7C220.69 80.22 220.396 80.6734 220.003 81.06C219.61 81.4467 219.15 81.7367 218.623 81.93L218.193 81.29C218.526 81.17 218.83 81.01 219.103 80.81C219.383 80.6034 219.623 80.3734 219.823 80.12C220.023 79.86 220.176 79.58 220.283 79.28C220.396 78.98 220.453 78.67 220.453 78.35V78.01H218.453V77.34H223.243V78.01H221.273V78.34C221.273 78.6334 221.326 78.92 221.433 79.2C221.54 79.48 221.686 79.74 221.873 79.98C222.066 80.22 222.296 80.4367 222.563 80.63C222.83 80.8234 223.126 80.9767 223.453 81.09L223.043 81.73ZM220.523 84.96H224.753V83.11H220.523V84.96ZM219.723 82.46H225.553V85.62H219.723V82.46ZM225.553 76.77V82.02H224.723V79.7H222.953V79.02H224.723V76.77H225.553Z" fill="#260FC2"/>
<path d="M228.662 85H234.202V85.64H227.862V83.51H233.122V82.71H227.832V82.09H233.932V84.11H228.662V85ZM228.712 79.15H233.112V77.72H228.712V79.15ZM234.972 80.69V81.35H226.852V80.69H230.502V79.8H227.912V77.07H233.922V79.8H231.322V80.69H234.972Z" fill="#260FC2"/>
<path d="M154.447 95.45H148.287V92.23H149.117V94.78H154.447V95.45ZM155.387 97.47H151.697V100.74H150.877V97.47H147.237V96.8H155.387V97.47Z" fill="#260FC2"/>
<path d="M160.826 96.79C160.326 96.61 159.889 96.3434 159.516 95.99C159.143 95.6367 158.856 95.2267 158.656 94.76C158.463 95.28 158.169 95.7367 157.776 96.13C157.389 96.5167 156.933 96.8067 156.406 97L155.976 96.35C156.309 96.23 156.613 96.07 156.886 95.87C157.166 95.67 157.406 95.44 157.606 95.18C157.806 94.92 157.959 94.64 158.066 94.34C158.179 94.04 158.236 93.73 158.236 93.41V93.05H156.236V92.38H161.026V93.05H159.056V93.41C159.056 93.6967 159.109 93.98 159.216 94.26C159.323 94.54 159.469 94.8 159.656 95.04C159.849 95.28 160.079 95.4967 160.346 95.69C160.613 95.8834 160.909 96.0367 161.236 96.15L160.826 96.79ZM157.336 97.63H163.326V100.75H162.506V98.29H157.336V97.63ZM163.326 91.77V97.14H162.506V94.78H160.756V94.11H162.506V91.77H163.326Z" fill="#260FC2"/>
<path d="M170.862 92.74C170.862 93.38 170.792 94 170.652 94.6C170.512 95.1934 170.282 95.7567 169.962 96.29C169.642 96.8234 169.225 97.3234 168.712 97.79C168.198 98.25 167.568 98.6634 166.822 99.03L166.372 98.39C166.972 98.0967 167.492 97.77 167.932 97.41C168.378 97.05 168.752 96.66 169.052 96.24C169.352 95.82 169.582 95.3734 169.742 94.9C169.902 94.4267 170.002 93.9267 170.042 93.4H166.772V92.74H170.862ZM173.762 91.78V100.74H172.942V96.04H170.842V95.37H172.942V91.78H173.762Z" fill="#260FC2"/>
<path d="M176.171 97.91C176.684 97.9034 177.184 97.8867 177.671 97.86C178.164 97.8267 178.698 97.76 179.271 97.66L179.331 98.34C178.711 98.4467 178.134 98.5167 177.601 98.55C177.068 98.5767 176.524 98.59 175.971 98.59H175.381V95.23H177.921V93.42H175.351V92.75H178.721V95.9H176.171V97.91ZM182.701 91.77V100.73H181.911V95.98H180.641V100.28H179.871V91.97H180.641V95.31H181.911V91.77H182.701Z" fill="#260FC2"/>
<path d="M184.61 94.45C184.61 94.6567 184.643 94.85 184.71 95.03C184.777 95.2034 184.867 95.3534 184.98 95.48C185.093 95.6067 185.23 95.7067 185.39 95.78C185.55 95.8467 185.723 95.88 185.91 95.88C186.097 95.88 186.267 95.8467 186.42 95.78C186.58 95.7067 186.717 95.6067 186.83 95.48C186.943 95.3534 187.033 95.2034 187.1 95.03C187.167 94.85 187.2 94.6567 187.2 94.45C187.2 94.2434 187.167 94.0534 187.1 93.88C187.033 93.7 186.943 93.5467 186.83 93.42C186.717 93.2934 186.58 93.1967 186.42 93.13C186.267 93.0567 186.097 93.02 185.91 93.02C185.723 93.02 185.55 93.0567 185.39 93.13C185.23 93.1967 185.093 93.2934 184.98 93.42C184.867 93.5467 184.777 93.7 184.71 93.88C184.643 94.0534 184.61 94.2434 184.61 94.45ZM187.95 94.45C187.95 94.7634 187.897 95.05 187.79 95.31C187.69 95.57 187.55 95.7934 187.37 95.98C187.19 96.16 186.973 96.3034 186.72 96.41C186.473 96.51 186.203 96.56 185.91 96.56C185.617 96.56 185.343 96.51 185.09 96.41C184.843 96.3034 184.63 96.16 184.45 95.98C184.27 95.7934 184.127 95.57 184.02 95.31C183.92 95.05 183.87 94.7634 183.87 94.45C183.87 94.1367 183.92 93.85 184.02 93.59C184.127 93.33 184.27 93.1067 184.45 92.92C184.63 92.7334 184.843 92.59 185.09 92.49C185.343 92.3834 185.617 92.33 185.91 92.33C186.203 92.33 186.473 92.3834 186.72 92.49C186.973 92.59 187.19 92.7334 187.37 92.92C187.55 93.1067 187.69 93.33 187.79 93.59C187.897 93.85 187.95 94.1367 187.95 94.45ZM185.32 97.62H191.35V100.75H190.53V98.28H185.32V97.62ZM191.35 91.77V97.11H190.56V94.75H189.42V97.06H188.65V91.94H189.42V94.08H190.56V91.77H191.35Z" fill="#260FC2"/>
<path d="M194.676 94.84C195.076 94.8 195.456 94.7234 195.816 94.61C196.182 94.49 196.506 94.3467 196.786 94.18C197.072 94.0067 197.299 93.8134 197.466 93.6C197.639 93.38 197.732 93.1434 197.746 92.89H194.966V92.23H201.596V92.89H198.806C198.812 93.1434 198.902 93.38 199.076 93.6C199.249 93.8134 199.476 94.0067 199.756 94.18C200.042 94.3467 200.366 94.49 200.726 94.61C201.092 94.7234 201.476 94.8 201.876 94.84L201.586 95.49C201.219 95.4434 200.862 95.37 200.516 95.27C200.169 95.17 199.849 95.0434 199.556 94.89C199.269 94.73 199.012 94.55 198.786 94.35C198.566 94.15 198.396 93.9267 198.276 93.68C198.149 93.9267 197.972 94.15 197.746 94.35C197.526 94.55 197.269 94.73 196.976 94.89C196.689 95.0434 196.372 95.17 196.026 95.27C195.686 95.37 195.332 95.4434 194.966 95.49L194.676 94.84ZM198.266 100.08C198.972 100.08 199.522 99.9967 199.916 99.83C200.309 99.6634 200.506 99.42 200.506 99.1C200.506 98.7867 200.309 98.5467 199.916 98.38C199.522 98.2067 198.972 98.12 198.266 98.12C197.559 98.12 197.009 98.2067 196.616 98.38C196.222 98.5467 196.026 98.7867 196.026 99.1C196.026 99.42 196.222 99.6634 196.616 99.83C197.009 99.9967 197.559 100.08 198.266 100.08ZM198.266 97.48C198.746 97.48 199.172 97.5167 199.546 97.59C199.926 97.6567 200.249 97.76 200.516 97.9C200.782 98.04 200.986 98.21 201.126 98.41C201.266 98.61 201.336 98.84 201.336 99.1C201.336 99.36 201.266 99.5934 201.126 99.8C200.986 100 200.782 100.17 200.516 100.31C200.249 100.45 199.926 100.553 199.546 100.62C199.172 100.693 198.746 100.73 198.266 100.73C197.306 100.73 196.552 100.59 196.006 100.31C195.466 100.03 195.196 99.6267 195.196 99.1C195.196 98.58 195.466 98.18 196.006 97.9C196.552 97.62 197.306 97.48 198.266 97.48ZM202.326 96.04V96.7H194.216V96.04H202.326Z" fill="#260FC2"/>
<path d="M207.495 92.73C207.495 93.37 207.418 93.99 207.265 94.59C207.112 95.19 206.872 95.76 206.545 96.3C206.218 96.84 205.798 97.3434 205.285 97.81C204.772 98.27 204.152 98.68 203.425 99.04L202.975 98.4C204.128 97.82 205.012 97.11 205.625 96.27C206.238 95.43 206.592 94.4767 206.685 93.41H203.395V92.73H207.495ZM211.255 96.09H209.815V100.74H208.995V91.77H209.815V95.41H211.255V96.09Z" fill="#260FC2"/>
<path d="M215.664 92.49C214.931 92.49 214.361 92.5734 213.954 92.74C213.554 92.9 213.354 93.13 213.354 93.43C213.354 93.73 213.554 93.9634 213.954 94.13C214.361 94.29 214.931 94.37 215.664 94.37C216.404 94.37 216.974 94.29 217.374 94.13C217.774 93.9634 217.974 93.73 217.974 93.43C217.974 93.13 217.774 92.9 217.374 92.74C216.974 92.5734 216.404 92.49 215.664 92.49ZM215.664 94.98C214.677 94.98 213.904 94.85 213.344 94.59C212.791 94.3234 212.514 93.9367 212.514 93.43C212.514 92.9234 212.791 92.5367 213.344 92.27C213.904 92.0034 214.677 91.87 215.664 91.87C216.657 91.87 217.431 92.0034 217.984 92.27C218.537 92.5367 218.814 92.9234 218.814 93.43C218.814 93.9367 218.537 94.3234 217.984 94.59C217.431 94.85 216.657 94.98 215.664 94.98ZM216.664 96.18H214.624V97.07H216.664V96.18ZM217.474 96.18V97.07H218.684V99.09H213.414V100H218.954V100.64H212.614V98.49H217.874V97.69H212.594V97.07H213.814V96.18H211.614V95.52H219.714V96.18H217.474Z" fill="#260FC2"/>
</g>
</g>
</svg>
