<?xml version="1.0" standalone="no"?>
<!DOCTYPE svg PUBLIC "-//W3C//DTD SVG 20010904//EN"
 "http://www.w3.org/TR/2001/REC-SVG-20010904/DTD/svg10.dtd">
<svg version="1.0" xmlns="http://www.w3.org/2000/svg"
 width="800.000000pt" height="1280.000000pt" viewBox="0 0 800.000000 1280.000000"
 preserveAspectRatio="xMidYMid meet">
<metadata>
Created by potrace 1.15, written by Peter Selinger 2001-2017
</metadata>
<g transform="translate(0.000000,1280.000000) scale(0.100000,-0.100000)"
fill="#000000" stroke="none">
<path d="M2840 12793 c-579 -40 -988 -234 -1220 -579 -194 -286 -277 -612
-341 -1339 l-22 -250 -78 -190 c-319 -781 -575 -1657 -725 -2483 -26 -145 -7
-164 128 -126 l58 17 237 -160 c249 -167 378 -248 527 -328 104 -56 99 -67
-24 -54 -47 4 -94 6 -105 3 -27 -8 -70 -50 -105 -100 -18 -26 -50 -52 -88 -72
-116 -62 -243 -153 -327 -233 -120 -116 -122 -139 -12 -189 l58 -26 -62 -70
c-332 -374 -660 -961 -724 -1295 -32 -172 -19 -233 84 -399 43 -69 151 -253
241 -410 90 -157 198 -341 241 -410 l77 -125 -39 -365 c-121 -1140 -204 -1703
-295 -1992 l-25 -77 -72 -38 c-64 -34 -72 -42 -75 -70 -4 -39 26 -70 76 -79
46 -9 90 15 129 70 26 37 47 50 209 123 340 154 609 252 923 335 80 21 295 68
297 65 2 -5 118 -814 118 -831 1 -17 -20 -25 -142 -58 -361 -96 -589 -206
-875 -421 -65 -49 -123 -99 -128 -111 -8 -18 1 -60 46 -202 31 -98 62 -185 70
-193 14 -14 80 -25 470 -75 337 -44 415 -50 675 -50 359 -1 521 25 707 115
124 59 209 136 249 223 l26 57 -26 63 c-40 100 -65 212 -77 341 -14 150 2 318
62 648 40 223 41 228 23 248 -16 18 -26 20 -67 15 -44 -6 -48 -5 -43 11 2 10
21 83 41 163 20 79 37 146 40 148 12 13 532 -35 800 -73 243 -35 218 -25 239
-103 12 -44 14 -68 7 -70 -6 -2 -21 -12 -33 -22 l-23 -18 23 -133 c12 -74 34
-197 47 -274 18 -95 28 -195 32 -310 6 -199 -7 -300 -62 -462 -19 -55 -35
-109 -35 -120 0 -29 76 -138 128 -183 60 -53 205 -123 305 -149 153 -40 281
-53 517 -53 282 0 595 28 967 87 51 8 111 15 132 15 68 0 83 23 142 216 35
116 50 180 45 197 -4 18 -43 54 -124 114 -270 204 -512 325 -817 408 -55 15
-124 34 -152 42 -29 8 -53 19 -53 25 0 14 69 487 76 521 3 15 9 25 13 23 14
-9 611 -106 771 -125 330 -40 652 -59 888 -53 151 4 151 5 94 175 -127 376
-183 831 -242 1962 -23 446 -35 653 -51 880 l-11 160 92 160 c51 88 111 186
132 218 22 32 45 72 53 90 78 187 -40 553 -338 1050 -38 64 -68 119 -66 120 2
2 58 37 124 79 387 242 1117 705 1157 735 63 46 85 100 69 173 -17 79 -70 198
-98 220 -30 23 -80 26 -126 6 -18 -7 -205 -120 -417 -251 -212 -131 -513 -317
-670 -413 -157 -96 -290 -181 -296 -189 -10 -11 -13 -11 -24 2 -10 12 -10 19
-2 27 7 7 12 24 12 39 0 22 -13 37 -67 77 -187 138 -404 245 -693 343 -63 22
-122 42 -130 45 -8 3 21 16 65 29 313 91 641 247 956 453 l117 77 5 50 c3 27
11 88 17 135 20 136 8 425 -25 580 -66 313 -181 583 -526 1235 -141 267 -224
445 -309 665 -102 261 -120 348 -145 685 -24 332 -45 532 -66 636 -77 385
-258 634 -574 792 -193 96 -381 147 -705 188 -125 16 -1105 33 -1260 22z"/>
</g>
</svg>
