<svg version="1.1" id="Layer_1" xmlns="http://www.w3.org/2000/svg" xmlns:xlink="http://www.w3.org/1999/xlink" x="0px" y="0px"
	 width="100%" viewBox="0 0 496 496" enable-background="new 0 0 496 496" xml:space="preserve">
<path fill="#000000" opacity="1.000000" stroke="none" 
	d="
M165.965256,348.367401 
	C133.893204,348.343750 110.406670,333.639099 93.469200,307.864227 
	C68.272545,269.520813 73.456001,215.462723 105.029869,183.183441 
	C142.473984,144.902756 201.596191,149.762054 232.557297,193.639114 
	C238.267838,201.731903 242.635696,210.480042 245.860001,219.826004 
	C246.432373,221.485092 247.141556,223.097000 248.206421,225.789932 
	C249.332626,222.667557 250.029663,220.669067 250.771759,218.687454 
	C261.777039,189.299271 281.068237,168.060669 311.958191,159.807007 
	C349.560883,149.759766 388.807709,169.013992 407.229126,204.894440 
	C421.025757,231.766907 423.112488,260.138092 413.618622,287.869019 
	C398.437439,332.212067 345.484924,367.331543 292.333130,337.867554 
	C271.602661,326.375854 258.369934,308.359497 250.625031,286.154266 
	C250.077362,284.584045 249.562561,283.002319 249.019516,281.430420 
	C248.969894,281.286804 248.825409,281.175964 248.450882,280.705902 
	C247.949905,282.406036 247.500168,283.879364 247.081360,285.361450 
	C238.840591,314.522369 203.838806,349.065674 165.965256,348.367401 
M129.849915,177.363449 
	C125.671692,179.809082 121.676254,182.514771 118.065926,185.754456 
	C84.727051,215.670654 78.619324,266.904114 103.965858,303.986877 
	C122.634880,331.300232 153.693542,343.315491 183.585159,334.600525 
	C193.212097,331.793793 202.101791,327.489044 209.292419,320.308105 
	C208.861542,319.612274 208.746826,319.274933 208.512772,319.083527 
	C208.132172,318.772308 207.701035,318.483459 207.243744,318.311249 
	C195.551987,313.907288 189.065598,304.675476 184.645386,293.666321 
	C179.445694,280.715698 178.075790,267.145233 179.920303,253.451935 
	C181.579742,241.132614 185.351486,229.429367 193.844971,219.775146 
	C203.062851,209.297516 214.819016,206.954254 227.100784,213.232788 
	C228.342178,213.867416 229.427383,215.164185 231.127808,214.655777 
	C219.336700,181.833740 174.648636,152.926163 129.849915,177.363449 
M296.600525,178.124390 
	C294.785278,179.301605 292.901123,180.385712 291.164856,181.669739 
	C251.767807,210.805374 244.507645,270.188812 275.569977,309.067749 
	C297.548553,336.577057 332.822845,344.985840 362.975464,329.800385 
	C368.110229,327.214386 373.154144,324.367950 377.430267,319.577759 
	C359.990967,313.289307 352.805420,299.470398 348.862885,283.281403 
	C346.151154,272.146393 345.873718,260.836243 347.998566,249.588272 
	C350.125092,238.331451 353.916962,227.732971 361.952148,219.115189 
	C371.071259,209.334869 381.316010,207.186859 393.622253,212.495819 
	C394.753387,212.983780 395.893677,214.113174 398.132568,212.318466 
	C390.927521,197.229294 380.264862,185.138351 365.415283,177.135193 
	C342.704071,164.894958 319.843170,165.206589 296.600525,178.124390 
z"/>
</svg>