<svg width="1920" height="902" viewBox="0 0 1920 902" fill="none" xmlns="http://www.w3.org/2000/svg">
<path fill-rule="evenodd" clip-rule="evenodd" d="M1477 147C1457.12 147 1441 163.118 1441 183V226.376C1441 246.258 1457.12 262.376 1477 262.376H1629.47L1662.33 282.5L1656.68 262.376H1659C1678.88 262.376 1695 246.258 1695 226.376V183C1695 163.118 1678.88 147 1659 147H1477Z" fill="#E8EEFF"/>
<path d="M1532.55 198.89L1536.15 194.87C1538.58 192.14 1539.69 190.49 1539.69 188.54C1539.69 184.97 1537.17 182.21 1532.52 182.21C1527.87 182.21 1524.99 184.88 1524.87 189.08H1529.7C1529.85 187.46 1530.75 186.5 1532.31 186.5C1533.99 186.5 1534.68 187.49 1534.68 188.51C1534.68 189.74 1533.69 190.85 1532.16 192.65L1525.29 200.57V203H1539.84V198.89H1532.55Z" fill="#260FC2"/>
<path d="M1540.68 206.12H1543.38L1545.18 203.12C1546.05 201.65 1546.08 201.29 1546.08 200.63C1546.08 199.19 1544.88 198.05 1543.38 198.05C1541.88 198.05 1540.68 199.19 1540.68 200.63C1540.68 201.56 1541.19 202.34 1542.24 202.79L1540.68 206.12Z" fill="#260FC2"/>
<path d="M1564.37 195.17H1561.82V189.56H1557.05V195.17H1552.28L1557.08 182.6H1552.22L1546.67 196.25V199.4H1557.05V203H1561.82V199.4H1564.37V195.17Z" fill="#260FC2"/>
<path d="M1574.66 182.21C1568.78 182.21 1565.21 186.62 1565.21 192.8C1565.21 198.98 1568.78 203.39 1574.66 203.39C1580.54 203.39 1584.11 198.98 1584.11 192.8C1584.11 186.62 1580.54 182.21 1574.66 182.21ZM1574.66 198.98C1571.63 198.98 1570.01 196.34 1570.01 192.8C1570.01 189.26 1571.63 186.62 1574.66 186.62C1577.69 186.62 1579.31 189.26 1579.31 192.8C1579.31 196.34 1577.69 198.98 1574.66 198.98Z" fill="#260FC2"/>
<path d="M1594.7 182.21C1588.82 182.21 1585.25 186.62 1585.25 192.8C1585.25 198.98 1588.82 203.39 1594.7 203.39C1600.58 203.39 1604.15 198.98 1604.15 192.8C1604.15 186.62 1600.58 182.21 1594.7 182.21ZM1594.7 198.98C1591.67 198.98 1590.05 196.34 1590.05 192.8C1590.05 189.26 1591.67 186.62 1594.7 186.62C1597.73 186.62 1599.35 189.26 1599.35 192.8C1599.35 196.34 1597.73 198.98 1594.7 198.98Z" fill="#260FC2"/>
<path d="M1610.34 190.526C1608.23 190.526 1606.63 192.002 1606.63 194.126C1606.63 196.268 1608.23 197.744 1610.34 197.744C1612.43 197.744 1614.01 196.268 1614.01 194.126C1614.01 192.002 1612.43 190.526 1610.34 190.526ZM1620.22 190.76H1618.28L1610.1 203H1612.05L1620.22 190.76ZM1610.34 195.836C1609.4 195.836 1608.63 195.152 1608.63 194.126C1608.63 193.1 1609.4 192.416 1610.34 192.416C1611.24 192.416 1612.03 193.1 1612.03 194.126C1612.03 195.152 1611.24 195.836 1610.34 195.836ZM1620.22 196.016C1618.13 196.016 1616.53 197.492 1616.53 199.616C1616.53 201.758 1618.13 203.234 1620.22 203.234C1622.33 203.234 1623.91 201.758 1623.91 199.616C1623.91 197.492 1622.33 196.016 1620.22 196.016ZM1620.22 201.344C1619.3 201.344 1618.53 200.66 1618.53 199.616C1618.53 198.608 1619.3 197.924 1620.22 197.924C1621.14 197.924 1621.93 198.608 1621.93 199.616C1621.93 200.66 1621.14 201.344 1620.22 201.344Z" fill="#260FC2"/>
<g opacity="0.5">
<path d="M1461.32 222.964L1462.08 221.716L1460.77 221.176L1460.98 220.564L1462.35 220.9L1462.47 219.448H1463.12L1463.24 220.888L1464.61 220.564L1464.81 221.176L1463.5 221.716L1464.27 222.964L1463.74 223.348L1462.8 222.208L1461.85 223.348L1461.32 222.964Z" fill="#260FC2"/>
<path d="M1466.02 224.404C1466.41 224.284 1466.77 224.124 1467.1 223.924C1467.44 223.716 1467.72 223.48 1467.95 223.216C1468.19 222.944 1468.38 222.648 1468.51 222.328C1468.64 222.008 1468.71 221.672 1468.72 221.32H1466.27V220.528H1468.72V219.208H1469.71V220.528H1472.19V221.32H1469.71C1469.71 221.664 1469.79 221.992 1469.92 222.304C1470.06 222.608 1470.25 222.888 1470.49 223.144C1470.73 223.4 1471.01 223.628 1471.34 223.828C1471.67 224.02 1472.04 224.176 1472.43 224.296L1471.97 225.052C1471.33 224.86 1470.78 224.568 1470.31 224.176C1469.83 223.784 1469.47 223.32 1469.23 222.784C1468.99 223.352 1468.64 223.84 1468.16 224.248C1467.69 224.656 1467.13 224.964 1466.48 225.172L1466.02 224.404ZM1469.71 226.768C1470.21 226.736 1470.72 226.7 1471.23 226.66C1471.74 226.62 1472.24 226.56 1472.72 226.48L1472.8 227.212C1472.2 227.324 1471.59 227.412 1470.97 227.476C1470.34 227.532 1469.73 227.576 1469.13 227.608C1468.53 227.64 1467.95 227.66 1467.39 227.668C1466.83 227.676 1466.31 227.68 1465.83 227.68L1465.7 226.852C1466.15 226.852 1466.62 226.852 1467.13 226.852C1467.64 226.844 1468.17 226.832 1468.72 226.816V224.812H1469.71V226.768ZM1474.41 219.124V229.9H1473.43V219.124H1474.41Z" fill="#260FC2"/>
<path d="M1478.33 228.832H1484.9V229.636H1477.36V226.084H1478.33V228.832ZM1485.84 224.08V224.872H1476.06V224.08H1483.31C1483.46 223.336 1483.55 222.688 1483.58 222.136C1483.6 221.584 1483.61 221.072 1483.61 220.6V220.564H1477.31V219.76H1484.58V220.6C1484.58 221.064 1484.57 221.576 1484.55 222.136C1484.52 222.696 1484.44 223.344 1484.31 224.08H1485.84Z" fill="#260FC2"/>
<path d="M1488.82 222.568C1488.87 222.168 1488.98 221.812 1489.15 221.5C1489.32 221.188 1489.53 220.928 1489.78 220.72C1490.03 220.504 1490.32 220.34 1490.65 220.228C1490.98 220.116 1491.33 220.06 1491.71 220.06C1492.09 220.06 1492.44 220.116 1492.75 220.228C1493.07 220.34 1493.35 220.496 1493.58 220.696C1493.81 220.896 1493.99 221.136 1494.12 221.416C1494.25 221.688 1494.31 221.996 1494.31 222.34C1494.31 222.62 1494.28 222.872 1494.2 223.096C1494.13 223.32 1494.03 223.516 1493.89 223.684C1493.76 223.844 1493.59 223.984 1493.4 224.104C1493.21 224.216 1493 224.312 1492.76 224.392C1493.34 224.536 1493.78 224.792 1494.07 225.16C1494.37 225.52 1494.52 225.972 1494.52 226.516C1494.52 226.916 1494.44 227.28 1494.28 227.608C1494.12 227.936 1493.91 228.216 1493.64 228.448C1493.37 228.672 1493.05 228.848 1492.69 228.976C1492.34 229.096 1491.96 229.156 1491.54 229.156C1491.07 229.156 1490.67 229.096 1490.34 228.976C1490.01 228.856 1489.73 228.692 1489.49 228.484C1489.26 228.276 1489.06 228.032 1488.91 227.752C1488.77 227.472 1488.64 227.168 1488.54 226.84L1489.52 226.432C1489.55 226.568 1489.61 226.748 1489.7 226.972C1489.82 227.22 1489.97 227.436 1490.14 227.62C1490.3 227.804 1490.49 227.948 1490.7 228.052C1490.92 228.156 1491.19 228.208 1491.53 228.208C1491.84 228.208 1492.11 228.156 1492.34 228.052C1492.58 227.948 1492.78 227.82 1492.93 227.668C1493.08 227.508 1493.2 227.332 1493.28 227.14C1493.36 226.94 1493.4 226.74 1493.4 226.54C1493.4 226.3 1493.37 226.08 1493.3 225.88C1493.24 225.68 1493.12 225.508 1492.96 225.364C1492.8 225.22 1492.56 225.108 1492.26 225.028C1491.96 224.94 1491.58 224.896 1491.12 224.896V224.104C1491.5 224.096 1491.83 224.056 1492.09 223.984C1492.36 223.904 1492.58 223.796 1492.75 223.66C1492.92 223.516 1493.04 223.348 1493.11 223.156C1493.18 222.964 1493.22 222.752 1493.22 222.52C1493.22 222.272 1493.18 222.052 1493.1 221.86C1493.03 221.668 1492.92 221.512 1492.78 221.392C1492.64 221.272 1492.47 221.18 1492.27 221.116C1492.08 221.052 1491.87 221.02 1491.65 221.02C1491.42 221.02 1491.22 221.056 1491.02 221.128C1490.84 221.192 1490.67 221.284 1490.52 221.404C1490.38 221.516 1490.26 221.652 1490.16 221.812C1490.06 221.972 1490 222.148 1489.96 222.34C1489.92 222.5 1489.91 222.636 1489.91 222.748L1488.82 222.568Z" fill="#260FC2"/>
<path d="M1503.02 223.372H1499.98V222.592H1503.02V221.32H1499.98V220.528H1503.02V219.136H1504.02V227.104H1503.02V223.372ZM1501.35 225.112C1500.49 225.272 1499.68 225.38 1498.92 225.436C1498.16 225.484 1497.38 225.508 1496.59 225.508H1495.77V219.904H1496.76V224.68C1497.5 224.672 1498.23 224.644 1498.95 224.596C1499.67 224.54 1500.44 224.44 1501.24 224.296L1501.35 225.112ZM1504.29 228.844V229.648H1497.12V226.42H1498.1V228.844H1504.29Z" fill="#260FC2"/>
<path d="M1513.14 219.964C1513.14 220.66 1513.02 221.308 1512.78 221.908C1512.55 222.508 1512.21 223.052 1511.77 223.54C1511.33 224.028 1510.8 224.46 1510.18 224.836C1509.56 225.212 1508.87 225.52 1508.09 225.76L1507.69 224.98C1508.33 224.78 1508.9 224.54 1509.41 224.26C1509.93 223.972 1510.38 223.648 1510.75 223.288C1511.14 222.928 1511.44 222.536 1511.67 222.112C1511.9 221.688 1512.04 221.24 1512.09 220.768H1508.13V219.964H1513.14ZM1510.3 228.844H1516.49V229.648H1509.31V226.192H1510.3V228.844ZM1517.62 222.4V223.216H1516.02V226.996H1515.04V219.136H1516.02V222.4H1517.62Z" fill="#260FC2"/>
<path d="M1523.06 226.588C1523.32 226.588 1523.55 226.52 1523.77 226.384C1523.99 226.248 1524.17 226.056 1524.32 225.808C1524.48 225.552 1524.61 225.248 1524.69 224.896C1524.78 224.544 1524.83 224.148 1524.83 223.708C1524.83 223.276 1524.78 222.884 1524.69 222.532C1524.61 222.172 1524.48 221.868 1524.32 221.62C1524.17 221.372 1523.99 221.18 1523.77 221.044C1523.55 220.908 1523.32 220.84 1523.06 220.84C1522.8 220.84 1522.56 220.908 1522.34 221.044C1522.13 221.18 1521.94 221.372 1521.78 221.62C1521.63 221.868 1521.51 222.172 1521.42 222.532C1521.33 222.884 1521.29 223.276 1521.29 223.708C1521.29 224.148 1521.33 224.544 1521.42 224.896C1521.51 225.248 1521.63 225.552 1521.78 225.808C1521.94 226.056 1522.13 226.248 1522.34 226.384C1522.56 226.52 1522.8 226.588 1523.06 226.588ZM1523.06 219.952C1523.45 219.952 1523.81 220.04 1524.14 220.216C1524.48 220.392 1524.77 220.644 1525.01 220.972C1525.25 221.3 1525.43 221.696 1525.56 222.16C1525.69 222.616 1525.76 223.132 1525.76 223.708C1525.76 224.284 1525.69 224.804 1525.56 225.268C1525.43 225.724 1525.25 226.116 1525.01 226.444C1524.77 226.772 1524.48 227.024 1524.14 227.2C1523.81 227.376 1523.45 227.464 1523.06 227.464C1522.66 227.464 1522.29 227.376 1521.96 227.2C1521.63 227.024 1521.35 226.772 1521.11 226.444C1520.87 226.116 1520.68 225.724 1520.54 225.268C1520.41 224.804 1520.35 224.284 1520.35 223.708C1520.35 223.132 1520.41 222.616 1520.54 222.16C1520.68 221.696 1520.87 221.3 1521.11 220.972C1521.35 220.644 1521.63 220.392 1521.96 220.216C1522.29 220.04 1522.66 219.952 1523.06 219.952ZM1530.25 224.248H1528.47V229.888H1527.49V219.136H1528.47V223.42H1530.25V224.248Z" fill="#260FC2"/>
<path d="M1539.46 219.136V225.292H1538.48V219.136H1539.46ZM1539.46 225.868V229.744H1532.5V225.868H1539.46ZM1533.46 226.648V228.952H1538.5V226.648H1533.46ZM1533.68 219.7C1534.09 219.7 1534.46 219.76 1534.81 219.88C1535.15 220 1535.45 220.172 1535.7 220.396C1535.95 220.62 1536.15 220.888 1536.28 221.2C1536.43 221.504 1536.5 221.84 1536.5 222.208C1536.5 222.584 1536.43 222.924 1536.28 223.228C1536.15 223.532 1535.95 223.796 1535.7 224.02C1535.45 224.244 1535.15 224.416 1534.81 224.536C1534.46 224.656 1534.09 224.716 1533.68 224.716C1533.27 224.716 1532.9 224.656 1532.55 224.536C1532.22 224.416 1531.92 224.244 1531.68 224.02C1531.43 223.796 1531.23 223.532 1531.09 223.228C1530.95 222.924 1530.88 222.584 1530.88 222.208C1530.88 221.84 1530.95 221.504 1531.09 221.2C1531.23 220.888 1531.43 220.62 1531.68 220.396C1531.92 220.172 1532.22 220 1532.55 219.88C1532.9 219.76 1533.27 219.7 1533.68 219.7ZM1533.68 220.516C1533.42 220.516 1533.17 220.56 1532.94 220.648C1532.71 220.728 1532.52 220.844 1532.36 220.996C1532.2 221.148 1532.07 221.328 1531.98 221.536C1531.89 221.736 1531.84 221.96 1531.84 222.208C1531.84 222.456 1531.89 222.684 1531.98 222.892C1532.07 223.1 1532.2 223.28 1532.36 223.432C1532.52 223.576 1532.71 223.692 1532.94 223.78C1533.17 223.86 1533.42 223.9 1533.68 223.9C1533.95 223.9 1534.2 223.86 1534.42 223.78C1534.66 223.692 1534.85 223.576 1535.01 223.432C1535.18 223.28 1535.31 223.1 1535.4 222.892C1535.49 222.684 1535.54 222.456 1535.54 222.208C1535.54 221.96 1535.49 221.736 1535.4 221.536C1535.31 221.328 1535.18 221.148 1535.01 220.996C1534.85 220.844 1534.66 220.728 1534.42 220.648C1534.2 220.56 1533.95 220.516 1533.68 220.516Z" fill="#260FC2"/>
<path d="M1547.25 224.452V219.316H1548.18V225.76H1547.25V225.16H1545.37V224.452H1547.25ZM1543.9 220.192C1543.46 220.192 1543.11 220.272 1542.85 220.432C1542.59 220.592 1542.46 220.812 1542.46 221.092C1542.46 221.372 1542.59 221.592 1542.85 221.752C1543.11 221.912 1543.46 221.992 1543.9 221.992C1544.34 221.992 1544.7 221.912 1544.96 221.752C1545.22 221.592 1545.36 221.372 1545.36 221.092C1545.36 220.812 1545.22 220.592 1544.96 220.432C1544.7 220.272 1544.34 220.192 1543.9 220.192ZM1543.9 222.7C1543.55 222.7 1543.23 222.664 1542.94 222.592C1542.66 222.512 1542.42 222.404 1542.21 222.268C1542.01 222.132 1541.86 221.964 1541.74 221.764C1541.63 221.564 1541.58 221.34 1541.58 221.092C1541.58 220.844 1541.63 220.624 1541.74 220.432C1541.86 220.232 1542.01 220.064 1542.21 219.928C1542.42 219.792 1542.66 219.688 1542.94 219.616C1543.23 219.536 1543.55 219.496 1543.9 219.496C1544.61 219.496 1545.17 219.64 1545.6 219.928C1546.03 220.208 1546.24 220.596 1546.24 221.092C1546.24 221.596 1546.03 221.992 1545.6 222.28C1545.17 222.56 1544.61 222.7 1543.9 222.7ZM1543.46 224.02C1543.03 224.044 1542.61 224.06 1542.21 224.068C1541.82 224.068 1541.46 224.068 1541.12 224.068L1541 223.3C1541.37 223.3 1541.79 223.3 1542.26 223.3C1542.73 223.292 1543.22 223.276 1543.72 223.252C1544.23 223.228 1544.73 223.196 1545.24 223.156C1545.75 223.116 1546.23 223.06 1546.68 222.988L1546.75 223.672C1546.38 223.744 1546 223.804 1545.6 223.852C1545.2 223.9 1544.8 223.94 1544.4 223.972V225.76H1543.46V224.02ZM1549.17 227.944H1543.87V228.964H1549.17V227.944ZM1549.17 226.18H1550.13V229.744H1542.9V226.18H1543.87V227.188H1549.17V226.18ZM1550.13 219.136V225.784H1549.2V219.136H1550.13Z" fill="#260FC2"/>
<path d="M1562.43 219.136V224.908H1561.44V219.136H1562.43ZM1556.46 225.436V226.756H1561.45V225.436H1562.43V229.744H1555.49V225.436H1556.46ZM1556.46 228.952H1561.45V227.524H1556.46V228.952ZM1556.64 219.64C1557.05 219.64 1557.43 219.7 1557.77 219.82C1558.11 219.94 1558.41 220.108 1558.66 220.324C1558.91 220.54 1559.11 220.8 1559.25 221.104C1559.39 221.408 1559.46 221.744 1559.46 222.112C1559.46 222.488 1559.39 222.828 1559.25 223.132C1559.11 223.436 1558.91 223.696 1558.66 223.912C1558.41 224.128 1558.11 224.296 1557.77 224.416C1557.43 224.536 1557.05 224.596 1556.64 224.596C1556.23 224.596 1555.86 224.536 1555.51 224.416C1555.18 224.296 1554.89 224.128 1554.64 223.912C1554.39 223.696 1554.19 223.436 1554.05 223.132C1553.91 222.828 1553.85 222.488 1553.85 222.112C1553.85 221.744 1553.91 221.408 1554.05 221.104C1554.19 220.8 1554.39 220.54 1554.64 220.324C1554.89 220.108 1555.18 219.94 1555.51 219.82C1555.86 219.7 1556.23 219.64 1556.64 219.64ZM1556.64 220.456C1556.38 220.456 1556.13 220.496 1555.9 220.576C1555.67 220.656 1555.48 220.772 1555.32 220.924C1555.16 221.068 1555.03 221.244 1554.94 221.452C1554.85 221.652 1554.81 221.872 1554.81 222.112C1554.81 222.36 1554.85 222.588 1554.94 222.796C1555.03 222.996 1555.16 223.172 1555.32 223.324C1555.48 223.468 1555.67 223.58 1555.9 223.66C1556.13 223.74 1556.38 223.78 1556.64 223.78C1556.91 223.78 1557.16 223.74 1557.39 223.66C1557.62 223.58 1557.81 223.468 1557.97 223.324C1558.14 223.172 1558.27 222.996 1558.36 222.796C1558.45 222.588 1558.5 222.36 1558.5 222.112C1558.5 221.872 1558.45 221.652 1558.36 221.452C1558.27 221.244 1558.14 221.068 1557.97 220.924C1557.81 220.772 1557.62 220.656 1557.39 220.576C1557.16 220.496 1556.91 220.456 1556.64 220.456Z" fill="#260FC2"/>
<path d="M1569.89 225.076C1569.29 224.86 1568.76 224.54 1568.32 224.116C1567.87 223.684 1567.53 223.192 1567.3 222.64C1567.06 223.264 1566.71 223.808 1566.24 224.272C1565.77 224.736 1565.22 225.084 1564.58 225.316L1564.07 224.548C1564.47 224.404 1564.83 224.212 1565.16 223.972C1565.5 223.724 1565.78 223.448 1566.02 223.144C1566.26 222.832 1566.45 222.496 1566.58 222.136C1566.71 221.776 1566.78 221.404 1566.78 221.02V220.612H1564.38V219.808H1570.13V220.612H1567.76V221.008C1567.76 221.36 1567.83 221.704 1567.96 222.04C1568.08 222.376 1568.26 222.688 1568.48 222.976C1568.72 223.264 1568.99 223.524 1569.31 223.756C1569.63 223.988 1569.99 224.172 1570.38 224.308L1569.89 225.076ZM1566.86 228.952H1571.94V226.732H1566.86V228.952ZM1565.9 225.952H1572.9V229.744H1565.9V225.952ZM1572.9 219.124V225.424H1571.9V222.64H1569.78V221.824H1571.9V219.124H1572.9Z" fill="#260FC2"/>
<path d="M1576.63 229H1583.28V229.768H1575.67V227.212H1581.98V226.252H1575.64V225.508H1582.96V227.932H1576.63V229ZM1576.69 221.98H1581.97V220.264H1576.69V221.98ZM1584.2 223.828V224.62H1574.46V223.828H1578.84V222.76H1575.73V219.484H1582.94V222.76H1579.82V223.828H1584.2Z" fill="#260FC2"/>
<path d="M1595.63 223.54H1588.24V219.676H1589.24V222.736H1595.63V223.54ZM1596.76 225.964H1592.33V229.888H1591.35V225.964H1586.98V225.16H1596.76V225.964Z" fill="#260FC2"/>
<path d="M1603.29 225.148C1602.69 224.932 1602.17 224.612 1601.72 224.188C1601.27 223.764 1600.93 223.272 1600.69 222.712C1600.45 223.336 1600.1 223.884 1599.63 224.356C1599.17 224.82 1598.62 225.168 1597.99 225.4L1597.47 224.62C1597.87 224.476 1598.23 224.284 1598.56 224.044C1598.9 223.804 1599.19 223.528 1599.43 223.216C1599.67 222.904 1599.85 222.568 1599.98 222.208C1600.11 221.848 1600.18 221.476 1600.18 221.092V220.66H1597.78V219.856H1603.53V220.66H1601.17V221.092C1601.17 221.436 1601.23 221.776 1601.36 222.112C1601.49 222.448 1601.66 222.76 1601.89 223.048C1602.12 223.336 1602.39 223.596 1602.71 223.828C1603.03 224.06 1603.39 224.244 1603.78 224.38L1603.29 225.148ZM1599.1 226.156H1606.29V229.9H1605.31V226.948H1599.1V226.156ZM1606.29 219.124V225.568H1605.31V222.736H1603.21V221.932H1605.31V219.124H1606.29Z" fill="#260FC2"/>
<path d="M1615.33 220.288C1615.33 221.056 1615.25 221.8 1615.08 222.52C1614.91 223.232 1614.64 223.908 1614.25 224.548C1613.87 225.188 1613.37 225.788 1612.75 226.348C1612.14 226.9 1611.38 227.396 1610.48 227.836L1609.94 227.068C1610.66 226.716 1611.29 226.324 1611.82 225.892C1612.35 225.46 1612.8 224.992 1613.16 224.488C1613.52 223.984 1613.8 223.448 1613.99 222.88C1614.18 222.312 1614.3 221.712 1614.35 221.08H1610.42V220.288H1615.33ZM1618.81 219.136V229.888H1617.83V224.248H1615.31V223.444H1617.83V219.136H1618.81Z" fill="#260FC2"/>
<path d="M1621.7 226.492C1622.32 226.484 1622.92 226.464 1623.5 226.432C1624.1 226.392 1624.74 226.312 1625.42 226.192L1625.5 227.008C1624.75 227.136 1624.06 227.22 1623.42 227.26C1622.78 227.292 1622.13 227.308 1621.46 227.308H1620.76V223.276H1623.8V221.104H1620.72V220.3H1624.76V224.08H1621.7V226.492ZM1629.54 219.124V229.876H1628.59V224.176H1627.07V229.336H1626.14V219.364H1627.07V223.372H1628.59V219.124H1629.54Z" fill="#260FC2"/>
<path d="M1631.83 222.34C1631.83 222.588 1631.87 222.82 1631.95 223.036C1632.03 223.244 1632.14 223.424 1632.27 223.576C1632.41 223.728 1632.57 223.848 1632.77 223.936C1632.96 224.016 1633.17 224.056 1633.39 224.056C1633.61 224.056 1633.82 224.016 1634 223.936C1634.19 223.848 1634.36 223.728 1634.49 223.576C1634.63 223.424 1634.74 223.244 1634.82 223.036C1634.9 222.82 1634.94 222.588 1634.94 222.34C1634.94 222.092 1634.9 221.864 1634.82 221.656C1634.74 221.44 1634.63 221.256 1634.49 221.104C1634.36 220.952 1634.19 220.836 1634 220.756C1633.82 220.668 1633.61 220.624 1633.39 220.624C1633.17 220.624 1632.96 220.668 1632.77 220.756C1632.57 220.836 1632.41 220.952 1632.27 221.104C1632.14 221.256 1632.03 221.44 1631.95 221.656C1631.87 221.864 1631.83 222.092 1631.83 222.34ZM1635.84 222.34C1635.84 222.716 1635.77 223.06 1635.65 223.372C1635.53 223.684 1635.36 223.952 1635.14 224.176C1634.93 224.392 1634.67 224.564 1634.36 224.692C1634.07 224.812 1633.74 224.872 1633.39 224.872C1633.04 224.872 1632.71 224.812 1632.41 224.692C1632.11 224.564 1631.85 224.392 1631.64 224.176C1631.42 223.952 1631.25 223.684 1631.12 223.372C1631 223.06 1630.94 222.716 1630.94 222.34C1630.94 221.964 1631 221.62 1631.12 221.308C1631.25 220.996 1631.42 220.728 1631.64 220.504C1631.85 220.28 1632.11 220.108 1632.41 219.988C1632.71 219.86 1633.04 219.796 1633.39 219.796C1633.74 219.796 1634.07 219.86 1634.36 219.988C1634.67 220.108 1634.93 220.28 1635.14 220.504C1635.36 220.728 1635.53 220.996 1635.65 221.308C1635.77 221.62 1635.84 221.964 1635.84 222.34ZM1632.68 226.144H1639.92V229.9H1638.93V226.936H1632.68V226.144ZM1639.92 219.124V225.532H1638.97V222.7H1637.6V225.472H1636.68V219.328H1637.6V221.896H1638.97V219.124H1639.92Z" fill="#260FC2"/>
<path d="M1643.91 222.808C1644.39 222.76 1644.85 222.668 1645.28 222.532C1645.72 222.388 1646.11 222.216 1646.44 222.016C1646.79 221.808 1647.06 221.576 1647.26 221.32C1647.47 221.056 1647.58 220.772 1647.59 220.468H1644.26V219.676H1652.21V220.468H1648.87C1648.87 220.772 1648.98 221.056 1649.19 221.32C1649.4 221.576 1649.67 221.808 1650.01 222.016C1650.35 222.216 1650.74 222.388 1651.17 222.532C1651.61 222.668 1652.07 222.76 1652.55 222.808L1652.2 223.588C1651.76 223.532 1651.33 223.444 1650.92 223.324C1650.5 223.204 1650.12 223.052 1649.77 222.868C1649.42 222.676 1649.11 222.46 1648.84 222.22C1648.58 221.98 1648.37 221.712 1648.23 221.416C1648.08 221.712 1647.87 221.98 1647.59 222.22C1647.33 222.46 1647.02 222.676 1646.67 222.868C1646.33 223.052 1645.95 223.204 1645.53 223.324C1645.12 223.444 1644.7 223.532 1644.26 223.588L1643.91 222.808ZM1648.22 229.096C1649.07 229.096 1649.73 228.996 1650.2 228.796C1650.67 228.596 1650.91 228.304 1650.91 227.92C1650.91 227.544 1650.67 227.256 1650.2 227.056C1649.73 226.848 1649.07 226.744 1648.22 226.744C1647.37 226.744 1646.71 226.848 1646.24 227.056C1645.77 227.256 1645.53 227.544 1645.53 227.92C1645.53 228.304 1645.77 228.596 1646.24 228.796C1646.71 228.996 1647.37 229.096 1648.22 229.096ZM1648.22 225.976C1648.79 225.976 1649.31 226.02 1649.75 226.108C1650.21 226.188 1650.6 226.312 1650.92 226.48C1651.24 226.648 1651.48 226.852 1651.65 227.092C1651.82 227.332 1651.9 227.608 1651.9 227.92C1651.9 228.232 1651.82 228.512 1651.65 228.76C1651.48 229 1651.24 229.204 1650.92 229.372C1650.6 229.54 1650.21 229.664 1649.75 229.744C1649.31 229.832 1648.79 229.876 1648.22 229.876C1647.07 229.876 1646.16 229.708 1645.51 229.372C1644.86 229.036 1644.53 228.552 1644.53 227.92C1644.53 227.296 1644.86 226.816 1645.51 226.48C1646.16 226.144 1647.07 225.976 1648.22 225.976ZM1653.09 224.248V225.04H1643.36V224.248H1653.09Z" fill="#260FC2"/>
<path d="M1659.29 220.276C1659.29 221.044 1659.2 221.788 1659.02 222.508C1658.83 223.228 1658.54 223.912 1658.15 224.56C1657.76 225.208 1657.26 225.812 1656.64 226.372C1656.02 226.924 1655.28 227.416 1654.41 227.848L1653.87 227.08C1655.25 226.384 1656.31 225.532 1657.05 224.524C1657.78 223.516 1658.21 222.372 1658.32 221.092H1654.37V220.276H1659.29ZM1663.8 224.308H1662.08V229.888H1661.09V219.124H1662.08V223.492H1663.8V224.308Z" fill="#260FC2"/>
<path d="M1669.1 219.988C1668.22 219.988 1667.53 220.088 1667.04 220.288C1666.56 220.48 1666.32 220.756 1666.32 221.116C1666.32 221.476 1666.56 221.756 1667.04 221.956C1667.53 222.148 1668.22 222.244 1669.1 222.244C1669.98 222.244 1670.67 222.148 1671.15 221.956C1671.63 221.756 1671.87 221.476 1671.87 221.116C1671.87 220.756 1671.63 220.48 1671.15 220.288C1670.67 220.088 1669.98 219.988 1669.1 219.988ZM1669.1 222.976C1667.91 222.976 1666.98 222.82 1666.31 222.508C1665.65 222.188 1665.32 221.724 1665.32 221.116C1665.32 220.508 1665.65 220.044 1666.31 219.724C1666.98 219.404 1667.91 219.244 1669.1 219.244C1670.29 219.244 1671.22 219.404 1671.88 219.724C1672.54 220.044 1672.88 220.508 1672.88 221.116C1672.88 221.724 1672.54 222.188 1671.88 222.508C1671.22 222.82 1670.29 222.976 1669.1 222.976ZM1670.3 224.416H1667.85V225.484H1670.3V224.416ZM1671.27 224.416V225.484H1672.72V227.908H1666.4V229H1673.04V229.768H1665.44V227.188H1671.75V226.228H1665.41V225.484H1666.88V224.416H1664.24V223.624H1673.96V224.416H1671.27Z" fill="#260FC2"/>
</g>
<path d="M326.831 815.523C216.858 826.016 0 828.648 0 828.648V902H1920V60C1724.28 142.031 1619.43 595.68 1307.49 676.07C1089.6 732.224 949.946 706.931 724.397 743.336C567.811 768.609 485.426 800.391 326.831 815.523Z" fill="#1A6DFF"/>
<path fill-rule="evenodd" clip-rule="evenodd" d="M1796.68 165.275C1800.16 167.996 1800.78 173.023 1798.06 176.504C1766.52 216.856 1735.63 264.069 1703.24 313.576L1701.77 315.835C1668.91 366.05 1634.54 418.459 1596.72 467.65C1521.14 565.953 1430.96 652.512 1309.49 683.817C1183.39 716.315 1083.23 721.71 978.484 727.351C969.009 727.861 959.497 728.374 949.925 728.908C945.514 729.155 941.738 725.778 941.492 721.367C941.245 716.955 944.622 713.18 949.033 712.933C958.588 712.4 968.071 711.888 977.504 711.38C1082.3 705.73 1181 700.409 1305.5 668.323C1421.77 638.359 1509.19 555.239 1584.04 457.897C1621.43 409.265 1655.48 357.36 1688.38 307.075L1690.07 304.494C1722.29 255.237 1753.49 207.54 1785.45 166.651C1788.17 163.17 1793.2 162.554 1796.68 165.275Z" fill="#260FC2"/>
<path d="M1801.69 154.277C1803.7 153.466 1806.09 154.589 1806.13 156.36L1801.69 194.5C1801.73 196.33 1799.26 197.501 1797.24 196.666C1797.13 196.623 1797.04 196.566 1796.95 196.502L1764.78 173.453C1764.69 173.39 1764.6 173.335 1764.5 173.283C1762.6 172.278 1762.75 170.014 1764.82 169.177L1801.69 154.277Z" fill="#260FC2"/>
<path fill-rule="evenodd" clip-rule="evenodd" d="M1729.81 132.599L1731.39 133.803L1730.18 135.394L1728.6 134.19L1729.81 132.599ZM1733.32 137.787L1731.75 136.59L1732.96 134.999L1734.53 136.195L1733.32 137.787ZM1736.47 140.18L1734.89 138.983L1736.11 137.392L1737.68 138.588L1736.47 140.18ZM1739.61 142.572L1738.04 141.376L1739.25 139.785L1740.82 140.981L1739.61 142.572ZM1742.75 144.965L1741.18 143.769L1742.39 142.178L1743.96 143.374L1742.75 144.965ZM1745.89 147.358L1744.32 146.162L1745.53 144.57L1747.11 145.767L1745.89 147.358ZM1749.04 149.751L1747.47 148.555L1748.68 146.963L1750.25 148.16L1749.04 149.751ZM1752.18 152.144L1750.61 150.947L1751.82 149.356L1753.39 150.553L1752.18 152.144ZM1755.32 154.537L1753.75 153.34L1754.96 151.749L1756.53 152.945L1755.32 154.537ZM1758.47 156.93L1756.89 155.733L1758.11 154.142L1759.68 155.338L1758.47 156.93ZM1761.61 159.322L1760.04 158.126L1761.25 156.535L1762.82 157.731L1761.61 159.322ZM1764.75 161.715L1763.18 160.519L1764.39 158.928L1765.96 160.124L1764.75 161.715ZM1767.89 164.108L1766.32 162.912L1767.53 161.32L1769.11 162.517L1767.89 164.108ZM1771.04 166.501L1769.47 165.305L1770.68 163.713L1772.25 164.91L1771.04 166.501ZM1772.61 167.697L1773.82 166.106L1775.4 167.31L1774.19 168.901L1772.61 167.697Z" fill="#260FC2"/>
<path fill-rule="evenodd" clip-rule="evenodd" d="M1308.79 610.601L1310.39 611.785L1309.2 613.392L1307.6 612.208L1308.79 610.601ZM1312.38 615.745L1310.79 614.568L1311.98 612.961L1313.57 614.137L1312.38 615.745ZM1315.55 618.098L1313.96 616.921L1315.15 615.314L1316.74 616.49L1315.55 618.098ZM1318.73 620.45L1317.14 619.274L1318.33 617.667L1319.92 618.843L1318.73 620.45ZM1321.91 622.803L1320.32 621.627L1321.51 620.02L1323.1 621.196L1321.91 622.803ZM1325.08 625.156L1323.49 623.98L1324.68 622.373L1326.27 623.549L1325.08 625.156ZM1328.26 627.509L1326.67 626.333L1327.86 624.726L1329.45 625.902L1328.26 627.509ZM1331.43 629.862L1329.85 628.686L1331.04 627.079L1332.62 628.255L1331.43 629.862ZM1334.61 632.215L1333.02 631.039L1334.21 629.432L1335.8 630.608L1334.61 632.215ZM1337.79 634.568L1336.2 633.392L1337.39 631.785L1338.98 632.961L1337.79 634.568ZM1340.96 636.921L1339.38 635.745L1340.57 634.137L1342.15 635.314L1340.96 636.921ZM1344.14 639.274L1342.55 638.098L1343.74 636.49L1345.33 637.667L1344.14 639.274ZM1347.32 641.627L1345.73 640.45L1346.92 638.843L1348.51 640.02L1347.32 641.627ZM1350.49 643.98L1348.91 642.803L1350.1 641.196L1351.68 642.373L1350.49 643.98ZM1353.67 646.333L1352.08 645.156L1353.27 643.549L1354.86 644.726L1353.67 646.333ZM1356.85 648.686L1355.26 647.509L1356.45 645.902L1358.04 647.079L1356.85 648.686ZM1360.02 651.039L1358.43 649.862L1359.62 648.255L1361.21 649.432L1360.02 651.039ZM1361.61 652.215L1362.8 650.608L1364.4 651.792L1363.21 653.399L1361.61 652.215Z" fill="#260FC2"/>
<path fill-rule="evenodd" clip-rule="evenodd" d="M887.792 679.601L889.39 680.785L888.199 682.392L886.602 681.208L887.792 679.601ZM891.376 684.745L889.787 683.568L890.978 681.961L892.566 683.137L891.376 684.745ZM894.552 687.098L892.964 685.921L894.154 684.314L895.743 685.49L894.552 687.098ZM897.729 689.45L896.14 688.274L897.331 686.667L898.919 687.843L897.729 689.45ZM900.905 691.803L899.317 690.627L900.507 689.02L902.096 690.196L900.905 691.803ZM904.082 694.156L902.493 692.98L903.684 691.373L905.272 692.549L904.082 694.156ZM907.258 696.509L905.67 695.333L906.86 693.726L908.449 694.902L907.258 696.509ZM910.435 698.862L908.846 697.686L910.037 696.079L911.625 697.255L910.435 698.862ZM913.611 701.215L912.023 700.039L913.213 698.432L914.801 699.608L913.611 701.215ZM916.787 703.568L915.199 702.392L916.39 700.785L917.978 701.961L916.787 703.568ZM919.964 705.921L918.376 704.745L919.566 703.137L921.154 704.314L919.964 705.921ZM923.14 708.274L921.552 707.098L922.743 705.49L924.331 706.667L923.14 708.274ZM926.317 710.627L924.729 709.45L925.919 707.843L927.507 709.02L926.317 710.627ZM929.493 712.98L927.905 711.803L929.096 710.196L930.684 711.373L929.493 712.98ZM932.67 715.333L931.082 714.156L932.272 712.549L933.86 713.726L932.67 715.333ZM935.846 717.686L934.258 716.509L935.449 714.902L937.037 716.079L935.846 717.686ZM939.023 720.039L937.435 718.862L938.625 717.255L940.213 718.432L939.023 720.039ZM940.611 721.215L941.801 719.608L943.399 720.792L942.209 722.399L940.611 721.215Z" fill="#260FC2"/>
<path d="M855.022 673.505L857.134 670.977C858.478 669.377 859.166 668.529 859.166 667.409C859.166 665.697 857.982 664.209 855.55 664.209C853.198 664.209 851.678 665.601 851.63 667.713H853.79C853.902 666.673 854.478 666.081 855.47 666.081C856.59 666.081 856.99 666.769 856.99 667.393C856.99 668.193 856.302 668.897 855.31 670.097L851.934 674.161V675.281H859.278V673.505H855.022Z" fill="#260FC2"/>
<path d="M865.674 664.209C862.57 664.209 860.762 666.593 860.762 669.841C860.762 673.089 862.57 675.473 865.674 675.473C868.778 675.473 870.57 673.089 870.57 669.841C870.57 666.593 868.778 664.209 865.674 664.209ZM865.674 673.505C863.834 673.505 862.954 671.905 862.954 669.841C862.954 667.777 863.834 666.177 865.674 666.177C867.498 666.177 868.378 667.777 868.378 669.841C868.378 671.905 867.498 673.505 865.674 673.505Z" fill="#260FC2"/>
<path d="M876.53 673.505V664.401H875.282L871.698 665.681V667.681L874.354 666.785V673.505H871.57V675.281H879.154V673.505H876.53Z" fill="#260FC2"/>
<path d="M883.294 664.209C880.814 664.209 879.07 665.873 879.07 668.065C879.07 670.225 880.814 671.857 883.262 671.857L881.118 675.281H883.646L886.51 670.753C887.15 669.729 887.518 668.945 887.518 668.001C887.518 665.905 885.79 664.209 883.294 664.209ZM883.294 669.953C882.03 669.953 881.182 669.009 881.182 667.937C881.182 666.865 882.046 665.953 883.294 665.953C884.542 665.953 885.422 666.865 885.422 667.905C885.422 668.433 885.23 668.833 884.718 669.537C884.334 669.809 883.838 669.953 883.294 669.953Z" fill="#260FC2"/>
<path d="M1272.84 606.352L1274.95 603.824C1276.29 602.224 1276.98 601.376 1276.98 600.256C1276.98 598.544 1275.8 597.056 1273.36 597.056C1271.01 597.056 1269.49 598.448 1269.44 600.56H1271.6C1271.72 599.52 1272.29 598.928 1273.28 598.928C1274.4 598.928 1274.8 599.616 1274.8 600.24C1274.8 601.04 1274.12 601.744 1273.12 602.944L1269.75 607.008V608.128H1277.09V606.352H1272.84Z" fill="#260FC2"/>
<path d="M1283.49 597.056C1280.38 597.056 1278.58 599.44 1278.58 602.688C1278.58 605.936 1280.38 608.32 1283.49 608.32C1286.59 608.32 1288.38 605.936 1288.38 602.688C1288.38 599.44 1286.59 597.056 1283.49 597.056ZM1283.49 606.352C1281.65 606.352 1280.77 604.752 1280.77 602.688C1280.77 600.624 1281.65 599.024 1283.49 599.024C1285.31 599.024 1286.19 600.624 1286.19 602.688C1286.19 604.752 1285.31 606.352 1283.49 606.352Z" fill="#260FC2"/>
<path d="M1292.65 606.352L1294.76 603.824C1296.1 602.224 1296.79 601.376 1296.79 600.256C1296.79 598.544 1295.61 597.056 1293.18 597.056C1290.82 597.056 1289.3 598.448 1289.26 600.56H1291.42C1291.53 599.52 1292.1 598.928 1293.1 598.928C1294.22 598.928 1294.62 599.616 1294.62 600.24C1294.62 601.04 1293.93 601.744 1292.94 602.944L1289.56 607.008V608.128H1296.9V606.352H1292.65Z" fill="#260FC2"/>
<path d="M1303.3 597.056C1300.2 597.056 1298.39 599.44 1298.39 602.688C1298.39 605.936 1300.2 608.32 1303.3 608.32C1306.41 608.32 1308.2 605.936 1308.2 602.688C1308.2 599.44 1306.41 597.056 1303.3 597.056ZM1303.3 606.352C1301.46 606.352 1300.58 604.752 1300.58 602.688C1300.58 600.624 1301.46 599.024 1303.3 599.024C1305.13 599.024 1306.01 600.624 1306.01 602.688C1306.01 604.752 1305.13 606.352 1303.3 606.352Z" fill="#260FC2"/>
<path d="M1696.88 124.913L1699 122.385C1700.34 120.785 1701.03 119.937 1701.03 118.817C1701.03 117.105 1699.84 115.617 1697.41 115.617C1695.06 115.617 1693.54 117.009 1693.49 119.121H1695.65C1695.76 118.081 1696.34 117.489 1697.33 117.489C1698.45 117.489 1698.85 118.177 1698.85 118.801C1698.85 119.601 1698.16 120.305 1697.17 121.505L1693.8 125.569V126.689H1701.14V124.913H1696.88Z" fill="#260FC2"/>
<path d="M1707.54 115.617C1704.43 115.617 1702.62 118.001 1702.62 121.249C1702.62 124.497 1704.43 126.881 1707.54 126.881C1710.64 126.881 1712.43 124.497 1712.43 121.249C1712.43 118.001 1710.64 115.617 1707.54 115.617ZM1707.54 124.913C1705.7 124.913 1704.82 123.313 1704.82 121.249C1704.82 119.185 1705.7 117.585 1707.54 117.585C1709.36 117.585 1710.24 119.185 1710.24 121.249C1710.24 123.313 1709.36 124.913 1707.54 124.913Z" fill="#260FC2"/>
<path d="M1716.7 124.913L1718.81 122.385C1720.15 120.785 1720.84 119.937 1720.84 118.817C1720.84 117.105 1719.66 115.617 1717.22 115.617C1714.87 115.617 1713.35 117.009 1713.3 119.121H1715.46C1715.58 118.081 1716.15 117.489 1717.14 117.489C1718.26 117.489 1718.66 118.177 1718.66 118.801C1718.66 119.601 1717.98 120.305 1716.98 121.505L1713.61 125.569V126.689H1720.95V124.913H1716.7Z" fill="#260FC2"/>
<path d="M1727.11 124.913V115.809H1725.86L1722.28 117.089V119.089L1724.94 118.193V124.913H1722.15V126.689H1729.74V124.913H1727.11Z" fill="#260FC2"/>
</svg>
