<svg width="164" height="46" viewBox="0 0 164 46" fill="none" xmlns="http://www.w3.org/2000/svg">
<path d="M0 6C0 2.68629 2.68629 0 6 0H158C161.314 0 164 2.68629 164 6V32C164 35.3137 161.314 38 158 38H89L81.5 46L74 38H6C2.68629 38 0 35.3137 0 32V6Z" fill="#FD584E"/>
<path d="M18.3999 13.738H21.3259C21.9046 13.738 22.4272 13.7893 22.8939 13.892C23.3699 13.9947 23.7759 14.1673 24.1119 14.41C24.4479 14.6433 24.7092 14.9513 24.8959 15.334C25.0826 15.7167 25.1759 16.188 25.1759 16.748C25.1759 17.2893 25.0826 17.7607 24.8959 18.162C24.7186 18.5633 24.4619 18.8947 24.1259 19.156C23.7899 19.4173 23.3886 19.6133 22.9219 19.744C22.4646 19.8653 21.9559 19.926 21.3959 19.926H19.7019V24H18.3999V13.738ZM21.2279 18.876C22.1332 18.876 22.8006 18.708 23.2299 18.372C23.6686 18.0267 23.8879 17.4853 23.8879 16.748C23.8879 16.0107 23.6592 15.502 23.2019 15.222C22.7539 14.9327 22.0772 14.788 21.1719 14.788H19.7019V18.876H21.2279Z" fill="white"/>
<path d="M30.8576 24.182C30.1856 24.182 29.5649 24.0653 28.9956 23.832C28.4263 23.5893 27.9363 23.2393 27.5256 22.782C27.1243 22.3247 26.8069 21.7693 26.5736 21.116C26.3496 20.4533 26.2376 19.7067 26.2376 18.876C26.2376 18.0453 26.3543 17.3033 26.5876 16.65C26.8209 15.9873 27.1476 15.4273 27.5676 14.97C27.9876 14.5033 28.4823 14.1487 29.0516 13.906C29.6303 13.6633 30.2603 13.542 30.9416 13.542C31.2963 13.542 31.6229 13.5793 31.9216 13.654C32.2203 13.7287 32.4909 13.8267 32.7336 13.948C32.9763 14.06 33.1909 14.1953 33.3776 14.354C33.5736 14.5033 33.7463 14.6573 33.8956 14.816L33.1956 15.656C32.9343 15.3853 32.6309 15.1567 32.2856 14.97C31.9403 14.774 31.5016 14.676 30.9696 14.676C30.4563 14.676 29.9896 14.774 29.5696 14.97C29.1496 15.1567 28.7903 15.432 28.4916 15.796C28.2023 16.1507 27.9736 16.5847 27.8056 17.098C27.6469 17.6113 27.5676 18.19 27.5676 18.834C27.5676 19.478 27.6423 20.0613 27.7916 20.584C27.9409 21.1067 28.1603 21.55 28.4496 21.914C28.7389 22.278 29.0936 22.558 29.5136 22.754C29.9429 22.95 30.4329 23.048 30.9836 23.048C31.3569 23.048 31.7069 22.9967 32.0336 22.894C32.3696 22.782 32.6403 22.6327 32.8456 22.446V19.758H30.6756V18.68H34.0356V22.992C33.7089 23.3373 33.2703 23.622 32.7196 23.846C32.1783 24.07 31.5576 24.182 30.8576 24.182Z" fill="white"/>
<path d="M44.5228 13.822C44.5228 14.718 44.4155 15.586 44.2008 16.426C43.9861 17.266 43.6501 18.064 43.1928 18.82C42.7355 19.576 42.1475 20.2807 41.4288 20.934C40.7101 21.578 39.8421 22.152 38.8248 22.656L38.1948 21.76C39.8095 20.948 41.0461 19.954 41.9048 18.778C42.7635 17.602 43.2581 16.2673 43.3888 14.774H38.7828V13.822H44.5228ZM49.7868 18.526H47.7708V25.036H46.6228V12.478H47.7708V17.574H49.7868V18.526Z" fill="white"/>
<path d="M60.8737 12.492V19.226H59.7257V12.492H60.8737ZM53.9157 19.842V21.382H59.7397V19.842H60.8737V24.868H52.7817V19.842H53.9157ZM53.9157 23.944H59.7397V22.278H53.9157V23.944ZM54.1257 13.08C54.6017 13.08 55.0404 13.15 55.4417 13.29C55.843 13.43 56.1884 13.626 56.4777 13.878C56.7764 14.13 57.005 14.4333 57.1637 14.788C57.3317 15.1427 57.4157 15.5347 57.4157 15.964C57.4157 16.4027 57.3317 16.7993 57.1637 17.154C57.005 17.5087 56.7764 17.812 56.4777 18.064C56.1884 18.316 55.843 18.512 55.4417 18.652C55.0404 18.792 54.6017 18.862 54.1257 18.862C53.6497 18.862 53.211 18.792 52.8097 18.652C52.4177 18.512 52.077 18.316 51.7877 18.064C51.4984 17.812 51.2697 17.5087 51.1017 17.154C50.943 16.7993 50.8637 16.4027 50.8637 15.964C50.8637 15.5347 50.943 15.1427 51.1017 14.788C51.2697 14.4333 51.4984 14.13 51.7877 13.878C52.077 13.626 52.4177 13.43 52.8097 13.29C53.211 13.15 53.6497 13.08 54.1257 13.08ZM54.1257 14.032C53.8177 14.032 53.5284 14.0787 53.2577 14.172C52.9964 14.2653 52.7724 14.4007 52.5857 14.578C52.399 14.746 52.2497 14.9513 52.1377 15.194C52.035 15.4273 51.9837 15.684 51.9837 15.964C51.9837 16.2533 52.035 16.5193 52.1377 16.762C52.2497 16.9953 52.399 17.2007 52.5857 17.378C52.7724 17.546 52.9964 17.6767 53.2577 17.77C53.5284 17.8633 53.8177 17.91 54.1257 17.91C54.443 17.91 54.7324 17.8633 54.9937 17.77C55.2644 17.6767 55.493 17.546 55.6797 17.378C55.8757 17.2007 56.025 16.9953 56.1277 16.762C56.2397 16.5193 56.2957 16.2533 56.2957 15.964C56.2957 15.684 56.2397 15.4273 56.1277 15.194C56.025 14.9513 55.8757 14.746 55.6797 14.578C55.493 14.4007 55.2644 14.2653 54.9937 14.172C54.7324 14.0787 54.443 14.032 54.1257 14.032Z" fill="white"/>
<path d="M73.3046 12.478V25.05H72.1566V12.478H73.3046ZM64.8766 13.542V16.86H68.5166V13.542H69.6506V22.012H63.7426V13.542H64.8766ZM64.8766 21.074H68.5166V17.77H64.8766V21.074Z" fill="white"/>
<path d="M83.3784 14.494H79.9064V18.526H83.3784V14.494ZM84.4984 15.628V17.378H87.3824V15.628H84.4984ZM84.4984 19.436H78.7724V13.584H84.4984V14.69H87.3824V12.492H88.5444V21.648H87.3824V18.316H84.4984V19.436ZM88.8384 23.818V24.756H80.4664V20.836H81.6144V23.818H88.8384Z" fill="white"/>
<path d="M94.3393 16.02C94.3393 16.5707 94.3953 17.112 94.5073 17.644C94.6286 18.176 94.8013 18.68 95.0253 19.156C95.2493 19.6227 95.5246 20.0473 95.8513 20.43C96.1873 20.8127 96.5746 21.1253 97.0133 21.368L96.3133 22.208C95.6973 21.844 95.1746 21.3447 94.7453 20.71C94.3253 20.066 94.008 19.3427 93.7933 18.54C93.5786 19.408 93.2473 20.192 92.7993 20.892C92.3606 21.5827 91.8286 22.124 91.2033 22.516L90.5033 21.662C90.942 21.4007 91.3293 21.0693 91.6653 20.668C92.0106 20.2573 92.2953 19.8047 92.5193 19.31C92.7526 18.8153 92.93 18.288 93.0513 17.728C93.1726 17.168 93.2333 16.5987 93.2333 16.02V14.886H90.8533V13.948H96.5793V14.886H94.3393V16.02ZM97.6993 12.758H98.7913V24.378H97.6993V17.924H95.6273V16.986H97.6993V12.758ZM101.325 12.464V25.022H100.219V12.464H101.325Z" fill="white"/>
<path d="M116.103 12.478V25.064H114.955V12.478H116.103ZM109.481 13.444C109.948 13.444 110.377 13.5467 110.769 13.752C111.161 13.9573 111.497 14.2513 111.777 14.634C112.057 15.0167 112.276 15.4787 112.435 16.02C112.594 16.552 112.673 17.154 112.673 17.826C112.673 18.498 112.594 19.1047 112.435 19.646C112.276 20.178 112.057 20.6353 111.777 21.018C111.497 21.4007 111.161 21.6947 110.769 21.9C110.377 22.1053 109.948 22.208 109.481 22.208C109.014 22.208 108.585 22.1053 108.193 21.9C107.801 21.6947 107.465 21.4007 107.185 21.018C106.905 20.6353 106.686 20.178 106.527 19.646C106.368 19.1047 106.289 18.498 106.289 17.826C106.289 17.154 106.368 16.552 106.527 16.02C106.686 15.4787 106.905 15.0167 107.185 14.634C107.465 14.2513 107.801 13.9573 108.193 13.752C108.585 13.5467 109.014 13.444 109.481 13.444ZM109.481 14.48C109.173 14.48 108.888 14.5593 108.627 14.718C108.375 14.8767 108.156 15.1007 107.969 15.39C107.782 15.6793 107.638 16.034 107.535 16.454C107.432 16.8647 107.381 17.322 107.381 17.826C107.381 18.3393 107.432 18.8013 107.535 19.212C107.638 19.6227 107.782 19.9773 107.969 20.276C108.156 20.5653 108.375 20.7893 108.627 20.948C108.888 21.1067 109.173 21.186 109.481 21.186C109.789 21.186 110.069 21.1067 110.321 20.948C110.573 20.7893 110.792 20.5653 110.979 20.276C111.166 19.9773 111.31 19.6227 111.413 19.212C111.516 18.8013 111.567 18.3393 111.567 17.826C111.567 17.322 111.516 16.8647 111.413 16.454C111.31 16.034 111.166 15.6793 110.979 15.39C110.792 15.1007 110.573 14.8767 110.321 14.718C110.069 14.5593 109.789 14.48 109.481 14.48Z" fill="white"/>
<path d="M128.884 21.998H127.778V12.492H128.884V21.998ZM122.64 16.51H119.938V18.708H122.64V16.51ZM123.718 19.632H118.846V13.486H119.938V15.6H122.64V13.486H123.718V16.118H125.398V12.73H126.476V21.634H125.398V17.056H123.718V19.632ZM129.248 23.818V24.756H120.694V20.738H121.842V23.818H129.248Z" fill="white"/>
<path d="M140.825 20.178H132.201V13.57H140.699V14.494H133.363V16.356H140.419V17.266H133.363V19.254H140.825V20.178ZM142.127 22.474V23.412H130.731V22.474H142.127Z" fill="white"/>
<path d="M144.114 14.97L144.072 13.514H145.374L145.332 14.97L145.164 20.906H144.282L144.114 14.97ZM144.716 24.182C144.464 24.182 144.244 24.0933 144.058 23.916C143.88 23.7387 143.792 23.5053 143.792 23.216C143.792 22.9267 143.88 22.6887 144.058 22.502C144.244 22.3153 144.464 22.222 144.716 22.222C144.977 22.222 145.196 22.3153 145.374 22.502C145.551 22.6887 145.64 22.9267 145.64 23.216C145.64 23.5053 145.551 23.7387 145.374 23.916C145.196 24.0933 144.977 24.182 144.716 24.182Z" fill="white"/>
</svg>
