<svg width="1280" height="849" viewBox="0 0 1280 849" fill="none" xmlns="http://www.w3.org/2000/svg">
<g clip-path="url(#clip0_579_2500)">
<path fill-rule="evenodd" clip-rule="evenodd" d="M946 93C928.327 93 914 107.327 914 125V163C914 180.673 928.327 195 946 195H1086.09L1111.48 211L1106.92 194.251C1121.26 191.09 1132 178.299 1132 163V125C1132 107.327 1117.67 93 1100 93H946Z" fill="#E8EEFF"/>
<path d="M992.039 139.164L995.399 135.412C997.667 132.864 998.703 131.324 998.703 129.504C998.703 126.172 996.351 123.596 992.011 123.596C987.671 123.596 984.983 126.088 984.871 130.008H989.379C989.519 128.496 990.359 127.6 991.815 127.6C993.383 127.6 994.027 128.524 994.027 129.476C994.027 130.624 993.103 131.66 991.675 133.34L985.263 140.732V143H998.843V139.164H992.039Z" fill="#260FC2"/>
<path d="M999.635 145.912H1002.15L1003.83 143.112C1004.65 141.74 1004.67 141.404 1004.67 140.788C1004.67 139.444 1003.55 138.38 1002.15 138.38C1000.75 138.38 999.635 139.444 999.635 140.788C999.635 141.656 1000.11 142.384 1001.09 142.804L999.635 145.912Z" fill="#260FC2"/>
<path d="M1021.74 135.692H1019.36V130.456H1014.91V135.692H1010.45L1014.93 123.96H1010.4L1005.22 136.7V139.64H1014.91V143H1019.36V139.64H1021.74V135.692Z" fill="#260FC2"/>
<path d="M1031.35 123.596C1025.86 123.596 1022.53 127.712 1022.53 133.48C1022.53 139.248 1025.86 143.364 1031.35 143.364C1036.84 143.364 1040.17 139.248 1040.17 133.48C1040.17 127.712 1036.84 123.596 1031.35 123.596ZM1031.35 139.248C1028.52 139.248 1027.01 136.784 1027.01 133.48C1027.01 130.176 1028.52 127.712 1031.35 127.712C1034.18 127.712 1035.69 130.176 1035.69 133.48C1035.69 136.784 1034.18 139.248 1031.35 139.248Z" fill="#260FC2"/>
<path d="M1050.05 123.596C1044.56 123.596 1041.23 127.712 1041.23 133.48C1041.23 139.248 1044.56 143.364 1050.05 143.364C1055.53 143.364 1058.87 139.248 1058.87 133.48C1058.87 127.712 1055.53 123.596 1050.05 123.596ZM1050.05 139.248C1047.22 139.248 1045.71 136.784 1045.71 133.48C1045.71 130.176 1047.22 127.712 1050.05 127.712C1052.87 127.712 1054.39 130.176 1054.39 133.48C1054.39 136.784 1052.87 139.248 1050.05 139.248Z" fill="#260FC2"/>
<path d="M1064.16 132.605C1062.4 132.605 1061.07 133.835 1061.07 135.605C1061.07 137.39 1062.4 138.62 1064.16 138.62C1065.9 138.62 1067.22 137.39 1067.22 135.605C1067.22 133.835 1065.9 132.605 1064.16 132.605ZM1072.39 132.8H1070.77L1063.96 143H1065.58L1072.39 132.8ZM1064.16 137.03C1063.38 137.03 1062.73 136.46 1062.73 135.605C1062.73 134.75 1063.38 134.18 1064.16 134.18C1064.91 134.18 1065.57 134.75 1065.57 135.605C1065.57 136.46 1064.91 137.03 1064.16 137.03ZM1072.39 137.18C1070.65 137.18 1069.32 138.41 1069.32 140.18C1069.32 141.965 1070.65 143.195 1072.39 143.195C1074.15 143.195 1075.47 141.965 1075.47 140.18C1075.47 138.41 1074.15 137.18 1072.39 137.18ZM1072.39 141.62C1071.63 141.62 1070.98 141.05 1070.98 140.18C1070.98 139.34 1071.63 138.77 1072.39 138.77C1073.16 138.77 1073.82 139.34 1073.82 140.18C1073.82 141.05 1073.16 141.62 1072.39 141.62Z" fill="#260FC2"/>
<g opacity="0.5">
<path d="M934.169 160.97L934.799 159.93L933.709 159.48L933.889 158.97L935.029 159.25L935.129 158.04H935.669L935.769 159.24L936.909 158.97L937.079 159.48L935.989 159.93L936.629 160.97L936.189 161.29L935.399 160.34L934.609 161.29L934.169 160.97Z" fill="#260FC2"/>
<path d="M938.087 162.17C938.414 162.07 938.714 161.936 938.987 161.77C939.267 161.596 939.504 161.4 939.697 161.18C939.897 160.953 940.05 160.706 940.157 160.44C940.27 160.173 940.33 159.893 940.337 159.6H938.297V158.94H940.337V157.84H941.157V158.94H943.227V159.6H941.157C941.164 159.886 941.224 160.16 941.337 160.42C941.45 160.673 941.607 160.906 941.807 161.12C942.007 161.333 942.244 161.523 942.517 161.69C942.797 161.85 943.1 161.98 943.427 162.08L943.047 162.71C942.514 162.55 942.05 162.306 941.657 161.98C941.264 161.653 940.964 161.266 940.757 160.82C940.564 161.293 940.267 161.7 939.867 162.04C939.474 162.38 939.007 162.636 938.467 162.81L938.087 162.17ZM941.157 164.14C941.577 164.113 942 164.083 942.427 164.05C942.854 164.016 943.267 163.966 943.667 163.9L943.737 164.51C943.237 164.603 942.727 164.676 942.207 164.73C941.687 164.776 941.177 164.813 940.677 164.84C940.177 164.866 939.694 164.883 939.227 164.89C938.76 164.896 938.327 164.9 937.927 164.9L937.817 164.21C938.19 164.21 938.587 164.21 939.007 164.21C939.434 164.203 939.877 164.193 940.337 164.18V162.51H941.157V164.14ZM945.077 157.77V166.75H944.257V157.77H945.077Z" fill="#260FC2"/>
<path d="M948.346 165.86H953.816V166.53H947.536V163.57H948.346V165.86ZM954.606 161.9V162.56H946.456V161.9H952.496C952.623 161.28 952.696 160.74 952.716 160.28C952.736 159.82 952.746 159.393 952.746 159V158.97H947.496V158.3H953.556V159C953.556 159.386 953.546 159.813 953.526 160.28C953.506 160.746 953.44 161.286 953.326 161.9H954.606Z" fill="#260FC2"/>
<path d="M957.082 160.64C957.128 160.306 957.222 160.01 957.362 159.75C957.502 159.49 957.675 159.273 957.882 159.1C958.095 158.92 958.338 158.783 958.612 158.69C958.885 158.596 959.178 158.55 959.492 158.55C959.812 158.55 960.102 158.596 960.362 158.69C960.628 158.783 960.858 158.913 961.052 159.08C961.245 159.246 961.395 159.446 961.502 159.68C961.608 159.906 961.662 160.163 961.662 160.45C961.662 160.683 961.632 160.893 961.572 161.08C961.512 161.266 961.425 161.43 961.312 161.57C961.198 161.703 961.062 161.82 960.902 161.92C960.742 162.013 960.565 162.093 960.372 162.16C960.852 162.28 961.215 162.493 961.462 162.8C961.708 163.1 961.832 163.476 961.832 163.93C961.832 164.263 961.765 164.566 961.632 164.84C961.505 165.113 961.328 165.346 961.102 165.54C960.875 165.726 960.612 165.873 960.312 165.98C960.018 166.08 959.698 166.13 959.352 166.13C958.958 166.13 958.625 166.08 958.352 165.98C958.078 165.88 957.842 165.743 957.642 165.57C957.448 165.396 957.288 165.193 957.162 164.96C957.042 164.726 956.938 164.473 956.852 164.2L957.672 163.86C957.692 163.973 957.742 164.123 957.822 164.31C957.922 164.516 958.042 164.696 958.182 164.85C958.322 165.003 958.478 165.123 958.652 165.21C958.832 165.296 959.062 165.34 959.342 165.34C959.602 165.34 959.828 165.296 960.022 165.21C960.222 165.123 960.385 165.016 960.512 164.89C960.638 164.756 960.735 164.61 960.802 164.45C960.868 164.283 960.902 164.116 960.902 163.95C960.902 163.75 960.875 163.566 960.822 163.4C960.768 163.233 960.672 163.09 960.532 162.97C960.398 162.85 960.205 162.756 959.952 162.69C959.705 162.616 959.388 162.58 959.002 162.58V161.92C959.322 161.913 959.592 161.88 959.812 161.82C960.038 161.753 960.222 161.663 960.362 161.55C960.502 161.43 960.602 161.29 960.662 161.13C960.722 160.97 960.752 160.793 960.752 160.6C960.752 160.393 960.718 160.21 960.652 160.05C960.592 159.89 960.502 159.76 960.382 159.66C960.268 159.56 960.128 159.483 959.962 159.43C959.802 159.376 959.628 159.35 959.442 159.35C959.255 159.35 959.082 159.38 958.922 159.44C958.768 159.493 958.628 159.57 958.502 159.67C958.382 159.763 958.282 159.876 958.202 160.01C958.122 160.143 958.065 160.29 958.032 160.45C958.005 160.583 957.992 160.696 957.992 160.79L957.082 160.64Z" fill="#260FC2"/>
<path d="M968.919 161.31H966.389V160.66H968.919V159.6H966.389V158.94H968.919V157.78H969.749V164.42H968.919V161.31ZM967.529 162.76C966.809 162.893 966.132 162.983 965.499 163.03C964.865 163.07 964.219 163.09 963.559 163.09H962.879V158.42H963.699V162.4C964.319 162.393 964.929 162.37 965.529 162.33C966.129 162.283 966.765 162.2 967.439 162.08L967.529 162.76ZM969.979 165.87V166.54H963.999V163.85H964.819V165.87H969.979Z" fill="#260FC2"/>
<path d="M977.354 158.47C977.354 159.05 977.254 159.59 977.054 160.09C976.861 160.59 976.581 161.043 976.214 161.45C975.848 161.856 975.404 162.216 974.884 162.53C974.371 162.843 973.791 163.1 973.144 163.3L972.814 162.65C973.341 162.483 973.818 162.283 974.244 162.05C974.678 161.81 975.051 161.54 975.364 161.24C975.684 160.94 975.938 160.613 976.124 160.26C976.318 159.906 976.434 159.533 976.474 159.14H973.174V158.47H977.354ZM974.984 165.87H980.144V166.54H974.164V163.66H974.984V165.87ZM981.084 160.5V161.18H979.754V164.33H978.934V157.78H979.754V160.5H981.084Z" fill="#260FC2"/>
<path d="M985.62 163.99C985.833 163.99 986.03 163.933 986.21 163.82C986.39 163.706 986.543 163.546 986.67 163.34C986.803 163.126 986.907 162.873 986.98 162.58C987.053 162.286 987.09 161.956 987.09 161.59C987.09 161.23 987.053 160.903 986.98 160.61C986.907 160.31 986.803 160.056 986.67 159.85C986.543 159.643 986.39 159.483 986.21 159.37C986.03 159.256 985.833 159.2 985.62 159.2C985.4 159.2 985.2 159.256 985.02 159.37C984.84 159.483 984.683 159.643 984.55 159.85C984.423 160.056 984.323 160.31 984.25 160.61C984.177 160.903 984.14 161.23 984.14 161.59C984.14 161.956 984.177 162.286 984.25 162.58C984.323 162.873 984.423 163.126 984.55 163.34C984.683 163.546 984.84 163.706 985.02 163.82C985.2 163.933 985.4 163.99 985.62 163.99ZM985.62 158.46C985.947 158.46 986.247 158.533 986.52 158.68C986.8 158.826 987.04 159.036 987.24 159.31C987.44 159.583 987.593 159.913 987.7 160.3C987.813 160.68 987.87 161.11 987.87 161.59C987.87 162.07 987.813 162.503 987.7 162.89C987.593 163.27 987.44 163.596 987.24 163.87C987.04 164.143 986.8 164.353 986.52 164.5C986.247 164.646 985.947 164.72 985.62 164.72C985.287 164.72 984.98 164.646 984.7 164.5C984.427 164.353 984.19 164.143 983.99 163.87C983.79 163.596 983.633 163.27 983.52 162.89C983.413 162.503 983.36 162.07 983.36 161.59C983.36 161.11 983.413 160.68 983.52 160.3C983.633 159.913 983.79 159.583 983.99 159.31C984.19 159.036 984.427 158.826 984.7 158.68C984.98 158.533 985.287 158.46 985.62 158.46ZM991.61 162.04H990.13V166.74H989.31V157.78H990.13V161.35H991.61V162.04Z" fill="#260FC2"/>
<path d="M999.289 157.78V162.91H998.469V157.78H999.289ZM999.289 163.39V166.62H993.489V163.39H999.289ZM994.289 164.04V165.96H998.489V164.04H994.289ZM994.469 158.25C994.809 158.25 995.122 158.3 995.409 158.4C995.696 158.5 995.942 158.643 996.149 158.83C996.362 159.016 996.526 159.24 996.639 159.5C996.759 159.753 996.819 160.033 996.819 160.34C996.819 160.653 996.759 160.936 996.639 161.19C996.526 161.443 996.362 161.663 996.149 161.85C995.942 162.036 995.696 162.18 995.409 162.28C995.122 162.38 994.809 162.43 994.469 162.43C994.129 162.43 993.816 162.38 993.529 162.28C993.249 162.18 993.006 162.036 992.799 161.85C992.592 161.663 992.429 161.443 992.309 161.19C992.196 160.936 992.139 160.653 992.139 160.34C992.139 160.033 992.196 159.753 992.309 159.5C992.429 159.24 992.592 159.016 992.799 158.83C993.006 158.643 993.249 158.5 993.529 158.4C993.816 158.3 994.129 158.25 994.469 158.25ZM994.469 158.93C994.249 158.93 994.042 158.966 993.849 159.04C993.662 159.106 993.502 159.203 993.369 159.33C993.236 159.456 993.129 159.606 993.049 159.78C992.976 159.946 992.939 160.133 992.939 160.34C992.939 160.546 992.976 160.736 993.049 160.91C993.129 161.083 993.236 161.233 993.369 161.36C993.502 161.48 993.662 161.576 993.849 161.65C994.042 161.716 994.249 161.75 994.469 161.75C994.696 161.75 994.902 161.716 995.089 161.65C995.282 161.576 995.446 161.48 995.579 161.36C995.719 161.233 995.826 161.083 995.899 160.91C995.979 160.736 996.019 160.546 996.019 160.34C996.019 160.133 995.979 159.946 995.899 159.78C995.826 159.606 995.719 159.456 995.579 159.33C995.446 159.203 995.282 159.106 995.089 159.04C994.902 158.966 994.696 158.93 994.469 158.93Z" fill="#260FC2"/>
<path d="M1005.78 162.21V157.93H1006.55V163.3H1005.78V162.8H1004.21V162.21H1005.78ZM1002.99 158.66C1002.62 158.66 1002.33 158.726 1002.11 158.86C1001.89 158.993 1001.79 159.176 1001.79 159.41C1001.79 159.643 1001.89 159.826 1002.11 159.96C1002.33 160.093 1002.62 160.16 1002.99 160.16C1003.35 160.16 1003.65 160.093 1003.87 159.96C1004.09 159.826 1004.2 159.643 1004.2 159.41C1004.2 159.176 1004.09 158.993 1003.87 158.86C1003.65 158.726 1003.35 158.66 1002.99 158.66ZM1002.99 160.75C1002.69 160.75 1002.43 160.72 1002.19 160.66C1001.95 160.593 1001.75 160.503 1001.58 160.39C1001.41 160.276 1001.28 160.136 1001.19 159.97C1001.09 159.803 1001.05 159.616 1001.05 159.41C1001.05 159.203 1001.09 159.02 1001.19 158.86C1001.28 158.693 1001.41 158.553 1001.58 158.44C1001.75 158.326 1001.95 158.24 1002.19 158.18C1002.43 158.113 1002.69 158.08 1002.99 158.08C1003.57 158.08 1004.04 158.2 1004.4 158.44C1004.76 158.673 1004.94 158.996 1004.94 159.41C1004.94 159.83 1004.76 160.16 1004.4 160.4C1004.04 160.633 1003.57 160.75 1002.99 160.75ZM1002.62 161.85C1002.26 161.87 1001.91 161.883 1001.58 161.89C1001.25 161.89 1000.95 161.89 1000.67 161.89L1000.57 161.25C1000.87 161.25 1001.22 161.25 1001.62 161.25C1002.01 161.243 1002.42 161.23 1002.84 161.21C1003.26 161.19 1003.68 161.163 1004.1 161.13C1004.52 161.096 1004.92 161.05 1005.3 160.99L1005.36 161.56C1005.05 161.62 1004.73 161.67 1004.4 161.71C1004.07 161.75 1003.74 161.783 1003.4 161.81V163.3H1002.62V161.85ZM1007.38 165.12H1002.96V165.97H1007.38V165.12ZM1007.38 163.65H1008.18V166.62H1002.15V163.65H1002.96V164.49H1007.38V163.65ZM1008.18 157.78V163.32H1007.4V157.78H1008.18Z" fill="#260FC2"/>
<path d="M1018.42 157.78V162.59H1017.6V157.78H1018.42ZM1013.45 163.03V164.13H1017.61V163.03H1018.42V166.62H1012.64V163.03H1013.45ZM1013.45 165.96H1017.61V164.77H1013.45V165.96ZM1013.6 158.2C1013.94 158.2 1014.26 158.25 1014.54 158.35C1014.83 158.45 1015.08 158.59 1015.28 158.77C1015.5 158.95 1015.66 159.166 1015.77 159.42C1015.89 159.673 1015.95 159.953 1015.95 160.26C1015.95 160.573 1015.89 160.856 1015.77 161.11C1015.66 161.363 1015.5 161.58 1015.28 161.76C1015.08 161.94 1014.83 162.08 1014.54 162.18C1014.26 162.28 1013.94 162.33 1013.6 162.33C1013.26 162.33 1012.95 162.28 1012.66 162.18C1012.38 162.08 1012.14 161.94 1011.93 161.76C1011.73 161.58 1011.56 161.363 1011.44 161.11C1011.33 160.856 1011.27 160.573 1011.27 160.26C1011.27 159.953 1011.33 159.673 1011.44 159.42C1011.56 159.166 1011.73 158.95 1011.93 158.77C1012.14 158.59 1012.38 158.45 1012.66 158.35C1012.95 158.25 1013.26 158.2 1013.6 158.2ZM1013.6 158.88C1013.38 158.88 1013.18 158.913 1012.98 158.98C1012.8 159.046 1012.64 159.143 1012.5 159.27C1012.37 159.39 1012.26 159.536 1012.18 159.71C1012.11 159.876 1012.07 160.06 1012.07 160.26C1012.07 160.466 1012.11 160.656 1012.18 160.83C1012.26 160.996 1012.37 161.143 1012.5 161.27C1012.64 161.39 1012.8 161.483 1012.98 161.55C1013.18 161.616 1013.38 161.65 1013.6 161.65C1013.83 161.65 1014.04 161.616 1014.22 161.55C1014.42 161.483 1014.58 161.39 1014.71 161.27C1014.85 161.143 1014.96 160.996 1015.03 160.83C1015.11 160.656 1015.15 160.466 1015.15 160.26C1015.15 160.06 1015.11 159.876 1015.03 159.71C1014.96 159.536 1014.85 159.39 1014.71 159.27C1014.58 159.143 1014.42 159.046 1014.22 158.98C1014.04 158.913 1013.83 158.88 1013.6 158.88Z" fill="#260FC2"/>
<path d="M1024.64 162.73C1024.14 162.55 1023.71 162.283 1023.33 161.93C1022.96 161.57 1022.68 161.16 1022.48 160.7C1022.29 161.22 1022 161.673 1021.6 162.06C1021.21 162.446 1020.75 162.736 1020.22 162.93L1019.79 162.29C1020.13 162.17 1020.43 162.01 1020.7 161.81C1020.98 161.603 1021.22 161.373 1021.42 161.12C1021.62 160.86 1021.78 160.58 1021.88 160.28C1022 159.98 1022.05 159.67 1022.05 159.35V159.01H1020.05V158.34H1024.84V159.01H1022.87V159.34C1022.87 159.633 1022.93 159.92 1023.03 160.2C1023.14 160.48 1023.29 160.74 1023.47 160.98C1023.67 161.22 1023.9 161.436 1024.16 161.63C1024.43 161.823 1024.73 161.976 1025.05 162.09L1024.64 162.73ZM1022.12 165.96H1026.35V164.11H1022.12V165.96ZM1021.32 163.46H1027.15V166.62H1021.32V163.46ZM1027.15 157.77V163.02H1026.32V160.7H1024.55V160.02H1026.32V157.77H1027.15Z" fill="#260FC2"/>
<path d="M1030.26 166H1035.8V166.64H1029.46V164.51H1034.72V163.71H1029.43V163.09H1035.53V165.11H1030.26V166ZM1030.31 160.15H1034.71V158.72H1030.31V160.15ZM1036.57 161.69V162.35H1028.45V161.69H1032.1V160.8H1029.51V158.07H1035.52V160.8H1032.92V161.69H1036.57Z" fill="#260FC2"/>
<path d="M1046.1 161.45H1039.94V158.23H1040.77V160.78H1046.1V161.45ZM1047.04 163.47H1043.35V166.74H1042.53V163.47H1038.89V162.8H1047.04V163.47Z" fill="#260FC2"/>
<path d="M1052.48 162.79C1051.98 162.61 1051.54 162.343 1051.17 161.99C1050.79 161.636 1050.51 161.226 1050.31 160.76C1050.11 161.28 1049.82 161.736 1049.43 162.13C1049.04 162.516 1048.58 162.806 1048.06 163L1047.63 162.35C1047.96 162.23 1048.26 162.07 1048.54 161.87C1048.82 161.67 1049.06 161.44 1049.26 161.18C1049.46 160.92 1049.61 160.64 1049.72 160.34C1049.83 160.04 1049.89 159.73 1049.89 159.41V159.05H1047.89V158.38H1052.68V159.05H1050.71V159.41C1050.71 159.696 1050.76 159.98 1050.87 160.26C1050.97 160.54 1051.12 160.8 1051.31 161.04C1051.5 161.28 1051.73 161.496 1052 161.69C1052.26 161.883 1052.56 162.036 1052.89 162.15L1052.48 162.79ZM1048.99 163.63H1054.98V166.75H1054.16V164.29H1048.99V163.63ZM1054.98 157.77V163.14H1054.16V160.78H1052.41V160.11H1054.16V157.77H1054.98Z" fill="#260FC2"/>
<path d="M1062.51 158.74C1062.51 159.38 1062.44 160 1062.3 160.6C1062.16 161.193 1061.93 161.756 1061.61 162.29C1061.29 162.823 1060.88 163.323 1060.36 163.79C1059.85 164.25 1059.22 164.663 1058.47 165.03L1058.02 164.39C1058.62 164.096 1059.14 163.77 1059.58 163.41C1060.03 163.05 1060.4 162.66 1060.7 162.24C1061 161.82 1061.23 161.373 1061.39 160.9C1061.55 160.426 1061.65 159.926 1061.69 159.4H1058.42V158.74H1062.51ZM1065.41 157.78V166.74H1064.59V162.04H1062.49V161.37H1064.59V157.78H1065.41Z" fill="#260FC2"/>
<path d="M1067.82 163.91C1068.34 163.903 1068.84 163.886 1069.32 163.86C1069.82 163.826 1070.35 163.76 1070.92 163.66L1070.98 164.34C1070.36 164.446 1069.79 164.516 1069.25 164.55C1068.72 164.576 1068.18 164.59 1067.62 164.59H1067.03V161.23H1069.57V159.42H1067V158.75H1070.37V161.9H1067.82V163.91ZM1074.35 157.77V166.73H1073.56V161.98H1072.29V166.28H1071.52V157.97H1072.29V161.31H1073.56V157.77H1074.35Z" fill="#260FC2"/>
<path d="M1076.26 160.45C1076.26 160.656 1076.29 160.85 1076.36 161.03C1076.43 161.203 1076.52 161.353 1076.63 161.48C1076.74 161.606 1076.88 161.706 1077.04 161.78C1077.2 161.846 1077.37 161.88 1077.56 161.88C1077.75 161.88 1077.92 161.846 1078.07 161.78C1078.23 161.706 1078.37 161.606 1078.48 161.48C1078.59 161.353 1078.68 161.203 1078.75 161.03C1078.82 160.85 1078.85 160.656 1078.85 160.45C1078.85 160.243 1078.82 160.053 1078.75 159.88C1078.68 159.7 1078.59 159.546 1078.48 159.42C1078.37 159.293 1078.23 159.196 1078.07 159.13C1077.92 159.056 1077.75 159.02 1077.56 159.02C1077.37 159.02 1077.2 159.056 1077.04 159.13C1076.88 159.196 1076.74 159.293 1076.63 159.42C1076.52 159.546 1076.43 159.7 1076.36 159.88C1076.29 160.053 1076.26 160.243 1076.26 160.45ZM1079.6 160.45C1079.6 160.763 1079.55 161.05 1079.44 161.31C1079.34 161.57 1079.2 161.793 1079.02 161.98C1078.84 162.16 1078.62 162.303 1078.37 162.41C1078.12 162.51 1077.85 162.56 1077.56 162.56C1077.27 162.56 1076.99 162.51 1076.74 162.41C1076.49 162.303 1076.28 162.16 1076.1 161.98C1075.92 161.793 1075.78 161.57 1075.67 161.31C1075.57 161.05 1075.52 160.763 1075.52 160.45C1075.52 160.136 1075.57 159.85 1075.67 159.59C1075.78 159.33 1075.92 159.106 1076.1 158.92C1076.28 158.733 1076.49 158.59 1076.74 158.49C1076.99 158.383 1077.27 158.33 1077.56 158.33C1077.85 158.33 1078.12 158.383 1078.37 158.49C1078.62 158.59 1078.84 158.733 1079.02 158.92C1079.2 159.106 1079.34 159.33 1079.44 159.59C1079.55 159.85 1079.6 160.136 1079.6 160.45ZM1076.97 163.62H1083V166.75H1082.18V164.28H1076.97V163.62ZM1083 157.77V163.11H1082.21V160.75H1081.07V163.06H1080.3V157.94H1081.07V160.08H1082.21V157.77H1083Z" fill="#260FC2"/>
<path d="M1086.33 160.84C1086.73 160.8 1087.11 160.723 1087.47 160.61C1087.83 160.49 1088.16 160.346 1088.44 160.18C1088.72 160.006 1088.95 159.813 1089.12 159.6C1089.29 159.38 1089.38 159.143 1089.4 158.89H1086.62V158.23H1093.25V158.89H1090.46C1090.46 159.143 1090.55 159.38 1090.73 159.6C1090.9 159.813 1091.13 160.006 1091.41 160.18C1091.69 160.346 1092.02 160.49 1092.38 160.61C1092.74 160.723 1093.13 160.8 1093.53 160.84L1093.24 161.49C1092.87 161.443 1092.51 161.37 1092.17 161.27C1091.82 161.17 1091.5 161.043 1091.21 160.89C1090.92 160.73 1090.66 160.55 1090.44 160.35C1090.22 160.15 1090.05 159.926 1089.93 159.68C1089.8 159.926 1089.62 160.15 1089.4 160.35C1089.18 160.55 1088.92 160.73 1088.63 160.89C1088.34 161.043 1088.02 161.17 1087.68 161.27C1087.34 161.37 1086.98 161.443 1086.62 161.49L1086.33 160.84ZM1089.92 166.08C1090.62 166.08 1091.17 165.996 1091.57 165.83C1091.96 165.663 1092.16 165.42 1092.16 165.1C1092.16 164.786 1091.96 164.546 1091.57 164.38C1091.17 164.206 1090.62 164.12 1089.92 164.12C1089.21 164.12 1088.66 164.206 1088.27 164.38C1087.87 164.546 1087.68 164.786 1087.68 165.1C1087.68 165.42 1087.87 165.663 1088.27 165.83C1088.66 165.996 1089.21 166.08 1089.92 166.08ZM1089.92 163.48C1090.4 163.48 1090.82 163.516 1091.2 163.59C1091.58 163.656 1091.9 163.76 1092.17 163.9C1092.43 164.04 1092.64 164.21 1092.78 164.41C1092.92 164.61 1092.99 164.84 1092.99 165.1C1092.99 165.36 1092.92 165.593 1092.78 165.8C1092.64 166 1092.43 166.17 1092.17 166.31C1091.9 166.45 1091.58 166.553 1091.2 166.62C1090.82 166.693 1090.4 166.73 1089.92 166.73C1088.96 166.73 1088.2 166.59 1087.66 166.31C1087.12 166.03 1086.85 165.626 1086.85 165.1C1086.85 164.58 1087.12 164.18 1087.66 163.9C1088.2 163.62 1088.96 163.48 1089.92 163.48ZM1093.98 162.04V162.7H1085.87V162.04H1093.98Z" fill="#260FC2"/>
<path d="M1099.15 158.73C1099.15 159.37 1099.07 159.99 1098.92 160.59C1098.76 161.19 1098.52 161.76 1098.2 162.3C1097.87 162.84 1097.45 163.343 1096.94 163.81C1096.42 164.27 1095.8 164.68 1095.08 165.04L1094.63 164.4C1095.78 163.82 1096.66 163.11 1097.28 162.27C1097.89 161.43 1098.24 160.476 1098.34 159.41H1095.05V158.73H1099.15ZM1102.91 162.09H1101.47V166.74H1100.65V157.77H1101.47V161.41H1102.91V162.09Z" fill="#260FC2"/>
<path d="M1107.32 158.49C1106.58 158.49 1106.01 158.573 1105.6 158.74C1105.2 158.9 1105.01 159.13 1105.01 159.43C1105.01 159.73 1105.2 159.963 1105.6 160.13C1106.01 160.29 1106.58 160.37 1107.32 160.37C1108.06 160.37 1108.62 160.29 1109.02 160.13C1109.42 159.963 1109.62 159.73 1109.62 159.43C1109.62 159.13 1109.42 158.9 1109.02 158.74C1108.62 158.573 1108.06 158.49 1107.32 158.49ZM1107.32 160.98C1106.33 160.98 1105.55 160.85 1104.99 160.59C1104.44 160.323 1104.16 159.936 1104.16 159.43C1104.16 158.923 1104.44 158.536 1104.99 158.27C1105.55 158.003 1106.33 157.87 1107.32 157.87C1108.31 157.87 1109.08 158.003 1109.63 158.27C1110.19 158.536 1110.46 158.923 1110.46 159.43C1110.46 159.936 1110.19 160.323 1109.63 160.59C1109.08 160.85 1108.31 160.98 1107.32 160.98ZM1108.32 162.18H1106.27V163.07H1108.32V162.18ZM1109.12 162.18V163.07H1110.34V165.09H1105.07V166H1110.6V166.64H1104.26V164.49H1109.52V163.69H1104.24V163.07H1105.46V162.18H1103.26V161.52H1111.37V162.18H1109.12Z" fill="#260FC2"/>
</g>
<path d="M-236.169 762.523C-346.142 773.016 -563 775.648 -563 775.648V849H1357V7C1161.28 89.0309 1056.43 542.68 744.494 623.07C526.604 679.224 386.946 653.931 161.397 690.336C4.81079 715.609 -77.5744 747.391 -236.169 762.523Z" fill="#1A6DFF"/>
<path fill-rule="evenodd" clip-rule="evenodd" d="M1233.68 112.275C1237.17 114.996 1237.78 120.023 1235.06 123.504C1203.52 163.856 1172.63 211.069 1140.24 260.576L1138.77 262.835C1105.91 313.05 1071.54 365.459 1033.72 414.65C958.137 512.953 867.962 599.512 746.491 630.817C620.392 663.315 520.226 668.71 415.485 674.351C406.01 674.861 396.498 675.374 386.926 675.908C382.514 676.155 378.739 672.778 378.492 668.367C378.246 663.955 381.622 660.18 386.034 659.933C395.589 659.4 405.071 658.888 414.504 658.38C519.303 652.73 617.996 647.409 742.498 615.323C858.77 585.359 946.192 502.239 1021.04 404.897C1058.43 356.265 1092.48 304.36 1125.38 254.075L1127.07 251.494C1159.29 202.237 1190.5 154.54 1222.45 113.651C1225.18 110.17 1230.2 109.554 1233.68 112.275Z" fill="#260FC2"/>
<path d="M1238.69 101.277C1240.7 100.466 1243.09 101.589 1243.13 103.36L1238.69 141.5C1238.73 143.33 1236.26 144.501 1234.24 143.666C1234.14 143.623 1234.04 143.566 1233.95 143.502L1201.78 120.453C1201.69 120.39 1201.6 120.335 1201.5 120.283C1199.6 119.278 1199.75 117.014 1201.82 116.177L1238.69 101.277Z" fill="#260FC2"/>
<path fill-rule="evenodd" clip-rule="evenodd" d="M1168.81 73.5986L1170.39 74.8026L1169.18 76.3939L1167.6 75.1899L1168.81 73.5986ZM1172.32 78.7868L1170.75 77.5903L1171.96 75.999L1173.53 77.1955L1172.32 78.7868ZM1175.47 81.1796L1173.89 79.9832L1175.11 78.3919L1176.68 79.5883L1175.47 81.1796ZM1178.61 83.5725L1177.04 82.376L1178.25 80.7848L1179.82 81.9812L1178.61 83.5725ZM1181.75 85.9653L1180.18 84.7689L1181.39 83.1776L1182.96 84.374L1181.75 85.9653ZM1184.89 88.3582L1183.32 87.1618L1184.53 85.5705L1186.11 86.7669L1184.89 88.3582ZM1188.04 90.751L1186.47 89.5546L1187.68 87.9633L1189.25 89.1598L1188.04 90.751ZM1191.18 93.1439L1189.61 91.9475L1190.82 90.3562L1192.39 91.5526L1191.18 93.1439ZM1194.32 95.5368L1192.75 94.3403L1193.96 92.749L1195.53 93.9455L1194.32 95.5368ZM1197.47 97.9296L1195.89 96.7332L1197.11 95.1419L1198.68 96.3383L1197.47 97.9296ZM1200.61 100.322L1199.04 99.126L1200.25 97.5348L1201.82 98.7312L1200.61 100.322ZM1203.75 102.715L1202.18 101.519L1203.39 99.9276L1204.96 101.124L1203.75 102.715ZM1206.89 105.108L1205.32 103.912L1206.53 102.32L1208.11 103.517L1206.89 105.108ZM1210.04 107.501L1208.47 106.305L1209.68 104.713L1211.25 105.91L1210.04 107.501ZM1211.61 108.697L1212.82 107.106L1214.4 108.31L1213.19 109.901L1211.61 108.697Z" fill="#260FC2"/>
<path fill-rule="evenodd" clip-rule="evenodd" d="M757.81 557.599L759.392 558.803L758.18 560.394L756.599 559.19L757.81 557.599ZM761.323 562.787L759.751 561.59L760.963 559.999L762.534 561.195L761.323 562.787ZM764.466 565.18L762.894 563.983L764.106 562.392L765.677 563.588L764.466 565.18ZM767.609 567.572L766.037 566.376L767.249 564.785L768.82 565.981L767.609 567.572ZM770.751 569.965L769.18 568.769L770.392 567.178L771.963 568.374L770.751 569.965ZM773.894 572.358L772.323 571.162L773.534 569.57L775.106 570.767L773.894 572.358ZM777.037 574.751L775.466 573.555L776.677 571.963L778.249 573.16L777.037 574.751ZM780.18 577.144L778.609 575.947L779.82 574.356L781.392 575.553L780.18 577.144ZM783.323 579.537L781.751 578.34L782.963 576.749L784.534 577.945L783.323 579.537ZM786.466 581.93L784.894 580.733L786.106 579.142L787.677 580.338L786.466 581.93ZM789.609 584.322L788.037 583.126L789.249 581.535L790.82 582.731L789.609 584.322ZM792.751 586.715L791.18 585.519L792.392 583.928L793.963 585.124L792.751 586.715ZM795.894 589.108L794.323 587.912L795.534 586.32L797.106 587.517L795.894 589.108ZM799.037 591.501L797.466 590.305L798.677 588.713L800.249 589.91L799.037 591.501ZM800.609 592.697L801.82 591.106L803.401 592.31L802.19 593.901L800.609 592.697Z" fill="#260FC2"/>
<path fill-rule="evenodd" clip-rule="evenodd" d="M333.81 627.599L335.392 628.803L334.18 630.394L332.599 629.19L333.81 627.599ZM337.323 632.787L335.751 631.59L336.963 629.999L338.534 631.195L337.323 632.787ZM340.466 635.18L338.894 633.983L340.106 632.392L341.677 633.588L340.466 635.18ZM343.609 637.572L342.037 636.376L343.249 634.785L344.82 635.981L343.609 637.572ZM346.751 639.965L345.18 638.769L346.392 637.178L347.963 638.374L346.751 639.965ZM349.894 642.358L348.323 641.162L349.534 639.57L351.106 640.767L349.894 642.358ZM353.037 644.751L351.466 643.555L352.677 641.963L354.249 643.16L353.037 644.751ZM356.18 647.144L354.609 645.947L355.82 644.356L357.392 645.553L356.18 647.144ZM359.323 649.537L357.751 648.34L358.963 646.749L360.534 647.945L359.323 649.537ZM362.466 651.93L360.894 650.733L362.106 649.142L363.677 650.338L362.466 651.93ZM365.609 654.322L364.037 653.126L365.249 651.535L366.82 652.731L365.609 654.322ZM368.751 656.715L367.18 655.519L368.392 653.928L369.963 655.124L368.751 656.715ZM371.894 659.108L370.323 657.912L371.534 656.32L373.106 657.517L371.894 659.108ZM375.037 661.501L373.466 660.305L374.677 658.713L376.249 659.91L375.037 661.501ZM376.609 662.697L377.82 661.106L379.401 662.31L378.19 663.901L376.609 662.697Z" fill="#260FC2"/>
<path d="M300.858 625.224L302.97 622.696C304.314 621.096 305.002 620.248 305.002 619.128C305.002 617.416 303.818 615.928 301.386 615.928C299.034 615.928 297.514 617.32 297.466 619.432H299.626C299.738 618.392 300.314 617.8 301.306 617.8C302.426 617.8 302.826 618.488 302.826 619.112C302.826 619.912 302.138 620.616 301.146 621.816L297.77 625.88V627H305.114V625.224H300.858Z" fill="#260FC2"/>
<path d="M311.51 615.928C308.406 615.928 306.598 618.312 306.598 621.56C306.598 624.808 308.406 627.192 311.51 627.192C314.614 627.192 316.406 624.808 316.406 621.56C316.406 618.312 314.614 615.928 311.51 615.928ZM311.51 625.224C309.67 625.224 308.79 623.624 308.79 621.56C308.79 619.496 309.67 617.896 311.51 617.896C313.334 617.896 314.214 619.496 314.214 621.56C314.214 623.624 313.334 625.224 311.51 625.224Z" fill="#260FC2"/>
<path d="M322.366 625.224V616.12H321.118L317.534 617.4V619.4L320.19 618.504V625.224H317.406V627H324.99V625.224H322.366Z" fill="#260FC2"/>
<path d="M329.13 615.928C326.65 615.928 324.906 617.592 324.906 619.784C324.906 621.944 326.65 623.576 329.098 623.576L326.954 627H329.482L332.346 622.472C332.986 621.448 333.354 620.664 333.354 619.72C333.354 617.624 331.626 615.928 329.13 615.928ZM329.13 621.672C327.866 621.672 327.018 620.728 327.018 619.656C327.018 618.584 327.882 617.672 329.13 617.672C330.378 617.672 331.258 618.584 331.258 619.624C331.258 620.152 331.066 620.552 330.554 621.256C330.17 621.528 329.674 621.672 329.13 621.672Z" fill="#260FC2"/>
<path d="M719.795 555.224L721.907 552.696C723.251 551.096 723.939 550.248 723.939 549.128C723.939 547.416 722.755 545.928 720.323 545.928C717.971 545.928 716.451 547.32 716.403 549.432H718.563C718.675 548.392 719.251 547.8 720.243 547.8C721.363 547.8 721.763 548.488 721.763 549.112C721.763 549.912 721.075 550.616 720.083 551.816L716.707 555.88V557H724.051V555.224H719.795Z" fill="#260FC2"/>
<path d="M730.448 545.928C727.344 545.928 725.536 548.312 725.536 551.56C725.536 554.808 727.344 557.192 730.448 557.192C733.552 557.192 735.344 554.808 735.344 551.56C735.344 548.312 733.552 545.928 730.448 545.928ZM730.448 555.224C728.608 555.224 727.728 553.624 727.728 551.56C727.728 549.496 728.608 547.896 730.448 547.896C732.272 547.896 733.152 549.496 733.152 551.56C733.152 553.624 732.272 555.224 730.448 555.224Z" fill="#260FC2"/>
<path d="M739.608 555.224L741.72 552.696C743.064 551.096 743.752 550.248 743.752 549.128C743.752 547.416 742.568 545.928 740.136 545.928C737.784 545.928 736.264 547.32 736.216 549.432H738.376C738.488 548.392 739.064 547.8 740.056 547.8C741.176 547.8 741.576 548.488 741.576 549.112C741.576 549.912 740.888 550.616 739.896 551.816L736.52 555.88V557H743.864V555.224H739.608Z" fill="#260FC2"/>
<path d="M750.26 545.928C747.156 545.928 745.348 548.312 745.348 551.56C745.348 554.808 747.156 557.192 750.26 557.192C753.364 557.192 755.156 554.808 755.156 551.56C755.156 548.312 753.364 545.928 750.26 545.928ZM750.26 555.224C748.42 555.224 747.54 553.624 747.54 551.56C747.54 549.496 748.42 547.896 750.26 547.896C752.084 547.896 752.964 549.496 752.964 551.56C752.964 553.624 752.084 555.224 750.26 555.224Z" fill="#260FC2"/>
<path d="M1133.88 71.9134L1136 69.3854C1137.34 67.7854 1138.03 66.9374 1138.03 65.8174C1138.03 64.1054 1136.84 62.6174 1134.41 62.6174C1132.06 62.6174 1130.54 64.0094 1130.49 66.1214H1132.65C1132.76 65.0814 1133.34 64.4894 1134.33 64.4894C1135.45 64.4894 1135.85 65.1774 1135.85 65.8014C1135.85 66.6014 1135.16 67.3054 1134.17 68.5054L1130.8 72.5694V73.6894H1138.14V71.9134H1133.88Z" fill="#260FC2"/>
<path d="M1144.54 62.6174C1141.43 62.6174 1139.62 65.0014 1139.62 68.2494C1139.62 71.4974 1141.43 73.8814 1144.54 73.8814C1147.64 73.8814 1149.43 71.4974 1149.43 68.2494C1149.43 65.0014 1147.64 62.6174 1144.54 62.6174ZM1144.54 71.9134C1142.7 71.9134 1141.82 70.3134 1141.82 68.2494C1141.82 66.1854 1142.7 64.5854 1144.54 64.5854C1146.36 64.5854 1147.24 66.1854 1147.24 68.2494C1147.24 70.3134 1146.36 71.9134 1144.54 71.9134Z" fill="#260FC2"/>
<path d="M1153.7 71.9134L1155.81 69.3854C1157.15 67.7854 1157.84 66.9374 1157.84 65.8174C1157.84 64.1054 1156.66 62.6174 1154.22 62.6174C1151.87 62.6174 1150.35 64.0094 1150.3 66.1214H1152.46C1152.58 65.0814 1153.15 64.4894 1154.14 64.4894C1155.26 64.4894 1155.66 65.1774 1155.66 65.8014C1155.66 66.6014 1154.98 67.3054 1153.98 68.5054L1150.61 72.5694V73.6894H1157.95V71.9134H1153.7Z" fill="#260FC2"/>
<path d="M1164.11 71.9134V62.8094H1162.86L1159.28 64.0894V66.0894L1161.94 65.1934V71.9134H1159.15V73.6894H1166.74V71.9134H1164.11Z" fill="#260FC2"/>
</g>
<defs>
<clipPath id="clip0_579_2500">
<rect width="1280" height="849" fill="white"/>
</clipPath>
</defs>
</svg>
